<?xml version="1.0" encoding="UTF-8" standalone="no"?><svg xmlns="http://www.w3.org/2000/svg" xmlns:xlink="http://www.w3.org/1999/xlink" contentStyleType="text/css" height="1126.0417px" preserveAspectRatio="none" style="width:1935px;height:1126px;background:#00000000;" version="1.1" viewBox="0 0 1935 1126" width="1935.4167px" zoomAndPan="magnify"><defs><linearGradient id="glwl49mazzv4q0" x1="50%" x2="50%" y1="0%" y2="100%"><stop offset="0%" stop-color="#FFFFFF"/><stop offset="100%" stop-color="#FFFFFF"/></linearGradient><filter height="300%" id="flwl49mazzv4q" width="300%" x="-1" y="-1"><feGaussianBlur result="blurOut" stdDeviation="2.0833333333333335"/><feColorMatrix in="blurOut" result="blurOut2" type="matrix" values="0 0 0 0 0 0 0 0 0 0 0 0 0 0 0 0 0 0 .4 0"/><feOffset dx="4.166666666666667" dy="4.166666666666667" in="blurOut2" result="blurOut3"/><feBlend in="SourceGraphic" in2="blurOut3" mode="normal"/></filter><linearGradient id="glwl49mazzv4q1" x1="50%" x2="50%" y1="0%" y2="100%"><stop offset="0%" stop-color="#4DABF5"/><stop offset="100%" stop-color="#2196F3"/></linearGradient><linearGradient id="glwl49mazzv4q2" x1="50%" x2="50%" y1="0%" y2="100%"><stop offset="0%" stop-color="#B052C0"/><stop offset="100%" stop-color="#9C27B0"/></linearGradient></defs><g><rect fill="url(#glwl49mazzv4q0)" height="55.7861" id="_title" rx="4.1667" ry="4.1667" style="stroke:#CCCCCC;stroke-width:1.0416666666666667;" width="305.2083" x="813.8021" y="15.625"/><text fill="#2196F3" font-family="&quot;Verdana&quot;" font-size="20.8333" font-weight="bold" lengthAdjust="spacing" textLength="273.9583" x="829.4271" y="51.3916">Basic Code Flow Diagram</text><ellipse cx="964.8438" cy="88.0778" fill="#9C27B0" filter="url(#flwl49mazzv4q)" rx="10.4167" ry="10.4167" style="stroke:#222222;stroke-width:1.0416666666666667;"/><rect fill="url(#glwl49mazzv4q1)" filter="url(#flwl49mazzv4q)" height="56.3883" rx="4.1667" ry="4.1667" style="stroke:#2196F3;stroke-width:0.5208333333333334;" width="346.875" x="791.4063" y="119.3278"/><text fill="#FFFFFF" font-family="&quot;Verdana&quot;" font-size="12.5" lengthAdjust="spacing" textLength="305.2083" x="812.2396" y="152.2461">Hook is Registed for AppointmentBookingFlowPage</text><path d="M1096.0938,201.7578 L1096.0938,220.577 L1075.2604,224.7437 L1096.0938,228.9103 L1096.0938,247.7295 A0,0 0 0 0 1096.0938,247.7295 L1397.1354,247.7295 A0,0 0 0 0 1397.1354,247.7295 L1397.1354,212.1745 L1386.7188,201.7578 L1096.0938,201.7578 A0,0 0 0 0 1096.0938,201.7578 " fill="url(#glwl49mazzv4q2)" filter="url(#flwl49mazzv4q)" style="stroke:#181818;stroke-width:1.0416666666666667;"/><path d="M1386.7188,201.7578 L1386.7188,212.1745 L1397.1354,212.1745 L1386.7188,201.7578 " fill="url(#glwl49mazzv4q2)" style="stroke:#181818;stroke-width:1.0416666666666667;"/><text fill="#FFFFFF" font-family="&quot;Verdana&quot;" font-size="12.5" lengthAdjust="spacing" textLength="258.3333" x="1112.7604" y="229.4678">Query: AppointmentBookingFlowPageQuery</text><rect fill="url(#glwl49mazzv4q1)" filter="url(#flwl49mazzv4q)" height="56.3883" rx="4.1667" ry="4.1667" style="stroke:#2196F3;stroke-width:0.5208333333333334;" width="220.8333" x="854.4271" y="196.5495"/><text fill="#FFFFFF" font-family="&quot;Verdana&quot;" font-size="12.5" lengthAdjust="spacing" textLength="179.1667" x="875.2604" y="229.4678">AppointmentBookingFlowPage</text><polygon fill="url(#glwl49mazzv4q0)" filter="url(#flwl49mazzv4q)" points="659.8958,273.7712,818.2292,273.7712,830.7292,291.5487,818.2292,309.3262,659.8958,309.3262,647.3958,291.5487,659.8958,273.7712" style="stroke:#CCCCCC;stroke-width:0.5208333333333334;"/><text fill="#222222" font-family="&quot;Verdana&quot;" font-size="12.5" lengthAdjust="spacing" textLength="19.7917" x="753.6458" y="331.8278">yes</text><text fill="#222222" font-family="&quot;Verdana&quot;" font-size="12.5" lengthAdjust="spacing" textLength="137.5" x="670.3125" y="296.2728">Any Location available?</text><rect fill="url(#glwl49mazzv4q1)" filter="url(#flwl49mazzv4q)" height="56.3883" rx="4.1667" ry="4.1667" style="stroke:#2196F3;stroke-width:0.5208333333333334;" width="232.2917" x="622.9167" y="365.7145"/><text fill="#FFFFFF" font-family="&quot;Verdana&quot;" font-size="12.5" lengthAdjust="spacing" textLength="190.625" x="643.75" y="398.6328">AppointmentBookingFlowMaster</text><path d="M866.1458,462.8662 L866.1458,481.6854 L845.3125,485.8521 L866.1458,490.0187 L866.1458,508.8379 A0,0 0 0 0 866.1458,508.8379 L1615.1042,508.8379 A0,0 0 0 0 1615.1042,508.8379 L1615.1042,473.2829 L1604.6875,462.8662 L866.1458,462.8662 A0,0 0 0 0 866.1458,462.8662 " fill="url(#glwl49mazzv4q2)" filter="url(#flwl49mazzv4q)" style="stroke:#181818;stroke-width:1.0416666666666667;"/><path d="M1604.6875,462.8662 L1604.6875,473.2829 L1615.1042,473.2829 L1604.6875,462.8662 " fill="url(#glwl49mazzv4q2)" style="stroke:#181818;stroke-width:1.0416666666666667;"/><text fill="#FFFFFF" font-family="&quot;Verdana&quot;" font-size="12.5" lengthAdjust="spacing" textLength="706.25" x="882.8125" y="490.5762">It returns Data from the query stored in variable named value, an empty state and functions: save, loading and reset.</text><rect fill="url(#glwl49mazzv4q1)" filter="url(#flwl49mazzv4q)" height="56.3883" rx="4.1667" ry="4.1667" style="stroke:#2196F3;stroke-width:0.5208333333333334;" width="212.5" x="632.8125" y="457.6579"/><text fill="#FFFFFF" font-family="&quot;Verdana&quot;" font-size="12.5" lengthAdjust="spacing" textLength="170.8333" x="653.6458" y="490.5762">useAppointmentBookingFlow</text><polygon fill="url(#glwl49mazzv4q0)" filter="url(#flwl49mazzv4q)" points="739.0625,560.0179,739.0625,560.0179,751.5625,572.5179,739.0625,585.0179,739.0625,585.0179,726.5625,572.5179,739.0625,560.0179" style="stroke:#CCCCCC;stroke-width:0.5208333333333334;"/><rect fill="url(#glwl49mazzv4q1)" filter="url(#flwl49mazzv4q)" height="56.3883" rx="4.1667" ry="4.1667" style="stroke:#2196F3;stroke-width:0.5208333333333334;" width="86.4583" x="91.6667" y="637.1012"/><text fill="#FFFFFF" font-family="&quot;Verdana&quot;" font-size="12.5" lengthAdjust="spacing" textLength="44.7917" x="112.5" y="670.0195">Header</text><rect fill="url(#glwl49mazzv4q1)" filter="url(#flwl49mazzv4q)" height="56.3883" rx="4.1667" ry="4.1667" style="stroke:#2196F3;stroke-width:0.5208333333333334;" width="246.875" x="11.4583" y="729.9479"/><text fill="#FFFFFF" font-family="&quot;Verdana&quot;" font-size="12.5" lengthAdjust="spacing" textLength="205.2083" x="32.2917" y="762.8662">Allow booking from Booking Portal</text><rect fill="url(#glwl49mazzv4q1)" filter="url(#flwl49mazzv4q)" height="56.3883" rx="4.1667" ry="4.1667" style="stroke:#2196F3;stroke-width:0.5208333333333334;" width="98.9583" x="313.5417" y="637.1012"/><text fill="#FFFFFF" font-family="&quot;Verdana&quot;" font-size="12.5" lengthAdjust="spacing" textLength="57.2917" x="334.375" y="670.0195">Sequence</text><rect fill="url(#glwl49mazzv4q1)" filter="url(#flwl49mazzv4q)" height="56.3883" rx="4.1667" ry="4.1667" style="stroke:#2196F3;stroke-width:0.5208333333333334;" width="188.5417" x="268.75" y="729.9479"/><text fill="#FFFFFF" font-family="&quot;Verdana&quot;" font-size="12.5" lengthAdjust="spacing" textLength="146.875" x="289.5833" y="762.8662">Select Booking Sequence</text><rect fill="url(#glwl49mazzv4q1)" filter="url(#flwl49mazzv4q)" height="56.3883" rx="4.1667" ry="4.1667" style="stroke:#2196F3;stroke-width:0.5208333333333334;" width="73.9583" x="877.6042" y="637.1012"/><text fill="#FFFFFF" font-family="&quot;Verdana&quot;" font-size="12.5" lengthAdjust="spacing" textLength="32.2917" x="898.4375" y="670.0195">Steps</text><line style="stroke:#2196F3;stroke-width:1.5625;" x1="534.375" x2="1277.6042" y1="765.5029" y2="765.5029"/><rect fill="url(#glwl49mazzv4q1)" filter="url(#flwl49mazzv4q)" height="56.3883" rx="4.1667" ry="4.1667" style="stroke:#2196F3;stroke-width:0.5208333333333334;" width="83.3333" x="492.7083" y="787.8988"/><text fill="#FFFFFF" font-family="&quot;Verdana&quot;" font-size="12.5" lengthAdjust="spacing" textLength="41.6667" x="513.5417" y="820.8171">Service</text><rect fill="url(#glwl49mazzv4q1)" filter="url(#flwl49mazzv4q)" height="56.3883" rx="4.1667" ry="4.1667" style="stroke:#2196F3;stroke-width:0.5208333333333334;" width="100" x="605.2083" y="787.8988"/><text fill="#FFFFFF" font-family="&quot;Verdana&quot;" font-size="12.5" lengthAdjust="spacing" textLength="58.3333" x="626.0417" y="820.8171">Employee</text><rect fill="url(#glwl49mazzv4q1)" filter="url(#flwl49mazzv4q)" height="56.3883" rx="4.1667" ry="4.1667" style="stroke:#2196F3;stroke-width:0.5208333333333334;" width="105.2083" x="734.375" y="787.8988"/><text fill="#FFFFFF" font-family="&quot;Verdana&quot;" font-size="12.5" lengthAdjust="spacing" textLength="63.5417" x="755.2083" y="820.8171">Availability</text><rect fill="url(#glwl49mazzv4q1)" filter="url(#flwl49mazzv4q)" height="56.3883" rx="4.1667" ry="4.1667" style="stroke:#2196F3;stroke-width:0.5208333333333334;" width="96.875" x="868.75" y="787.8988"/><text fill="#FFFFFF" font-family="&quot;Verdana&quot;" font-size="12.5" lengthAdjust="spacing" textLength="55.2083" x="889.5833" y="820.8171">Resource</text><rect fill="url(#glwl49mazzv4q1)" filter="url(#flwl49mazzv4q)" height="56.3883" rx="4.1667" ry="4.1667" style="stroke:#2196F3;stroke-width:0.5208333333333334;" width="98.9583" x="994.7917" y="787.8988"/><text fill="#FFFFFF" font-family="&quot;Verdana&quot;" font-size="12.5" lengthAdjust="spacing" textLength="57.2917" x="1015.625" y="820.8171">Customer</text><rect fill="url(#glwl49mazzv4q1)" filter="url(#flwl49mazzv4q)" height="56.3883" rx="4.1667" ry="4.1667" style="stroke:#2196F3;stroke-width:0.5208333333333334;" width="66.6667" x="1122.9167" y="787.8988"/><text fill="#FFFFFF" font-family="&quot;Verdana&quot;" font-size="12.5" lengthAdjust="spacing" textLength="25" x="1143.75" y="820.8171">Cart</text><rect fill="url(#glwl49mazzv4q1)" filter="url(#flwl49mazzv4q)" height="56.3883" rx="4.1667" ry="4.1667" style="stroke:#2196F3;stroke-width:0.5208333333333334;" width="117.7083" x="1218.75" y="787.8988"/><text fill="#FFFFFF" font-family="&quot;Verdana&quot;" font-size="12.5" lengthAdjust="spacing" textLength="76.0417" x="1239.5833" y="820.8171">Confirmation</text><line style="stroke:#2196F3;stroke-width:1.5625;" x1="534.375" x2="1277.6042" y1="865.1204" y2="865.1204"/><polygon fill="url(#glwl49mazzv4q0)" filter="url(#flwl49mazzv4q)" points="739.0625,875.5371,739.0625,875.5371,751.5625,888.0371,739.0625,900.5371,739.0625,900.5371,726.5625,888.0371,739.0625,875.5371" style="stroke:#CCCCCC;stroke-width:0.5208333333333334;"/><polygon fill="url(#glwl49mazzv4q0)" filter="url(#flwl49mazzv4q)" points="1662.5,273.7712,1788.5417,273.7712,1801.0417,291.5487,1788.5417,309.3262,1662.5,309.3262,1650,291.5487,1662.5,273.7712" style="stroke:#CCCCCC;stroke-width:0.5208333333333334;"/><text fill="#222222" font-family="&quot;Verdana&quot;" font-size="12.5" lengthAdjust="spacing" textLength="105.2083" x="1672.9167" y="296.2728">No active location</text><text fill="#222222" font-family="&quot;Verdana&quot;" font-size="12.5" lengthAdjust="spacing" textLength="30.2083" x="1811.4583" y="278.4953">error</text><rect fill="url(#glwl49mazzv4q1)" filter="url(#flwl49mazzv4q)" height="56.3883" rx="4.1667" ry="4.1667" style="stroke:#2196F3;stroke-width:0.5208333333333334;" width="200" x="1625.5208" y="350.9928"/><text fill="#FFFFFF" font-family="&quot;Verdana&quot;" font-size="12.5" lengthAdjust="spacing" textLength="158.3333" x="1646.3542" y="383.9111">Show Location Empty State</text><ellipse cx="1725.5208" cy="453.3529" fill="none" filter="url(#flwl49mazzv4q)" rx="10.4167" ry="10.4167" style="stroke:#9C27B0;stroke-width:1.5625;"/><line style="stroke:#9C27B0;stroke-width:2.604166666666667;" x1="1719.0758" x2="1731.9658" y1="446.9079" y2="459.7978"/><line style="stroke:#9C27B0;stroke-width:2.604166666666667;" x1="1731.9658" x2="1719.0758" y1="446.9079" y2="459.7978"/><rect fill="url(#glwl49mazzv4q1)" filter="url(#flwl49mazzv4q)" height="56.3883" rx="4.1667" ry="4.1667" style="stroke:#2196F3;stroke-width:0.5208333333333334;" width="71.875" x="1846.3542" y="595.7479"/><text fill="#FFFFFF" font-family="&quot;Verdana&quot;" font-size="12.5" lengthAdjust="spacing" textLength="30.2083" x="1867.1875" y="628.6662">Error</text><ellipse cx="1882.2917" cy="699.0112" fill="none" filter="url(#flwl49mazzv4q)" rx="10.4167" ry="10.4167" style="stroke:#9C27B0;stroke-width:1.5625;"/><line style="stroke:#9C27B0;stroke-width:2.604166666666667;" x1="1875.8467" x2="1888.7367" y1="692.5662" y2="705.4562"/><line style="stroke:#9C27B0;stroke-width:2.604166666666667;" x1="1888.7367" x2="1875.8467" y1="692.5662" y2="705.4562"/><polygon fill="url(#glwl49mazzv4q0)" filter="url(#flwl49mazzv4q)" points="905.4688,942.2038,1024.2188,942.2038,1036.7188,959.9813,1024.2188,977.7588,905.4688,977.7588,892.9688,959.9813,905.4688,942.2038" style="stroke:#CCCCCC;stroke-width:0.5208333333333334;"/><text fill="#222222" font-family="&quot;Verdana&quot;" font-size="12.5" lengthAdjust="spacing" textLength="97.9167" x="915.8854" y="964.7054">values changed?</text><text fill="#222222" font-family="&quot;Verdana&quot;" font-size="12.5" lengthAdjust="spacing" textLength="19.7917" x="862.7604" y="946.9279">yes</text><text fill="#222222" font-family="&quot;Verdana&quot;" font-size="12.5" lengthAdjust="spacing" textLength="14.5833" x="1047.1354" y="946.9279">no</text><line style="stroke:#2196F3;stroke-width:1.5625;" x1="725.5208" x2="1115.625" y1="988.1755" y2="988.1755"/><path d="M297.9167,1015.7796 L297.9167,1061.7513 A0,0 0 0 0 297.9167,1061.7513 L959.375,1061.7513 A0,0 0 0 0 959.375,1061.7513 L959.375,1042.9321 L980.2083,1038.7655 L959.375,1034.5988 L959.375,1026.1963 L948.9583,1015.7796 L297.9167,1015.7796 A0,0 0 0 0 297.9167,1015.7796 " fill="url(#glwl49mazzv4q2)" filter="url(#flwl49mazzv4q)" style="stroke:#181818;stroke-width:1.0416666666666667;"/><path d="M948.9583,1015.7796 L948.9583,1026.1963 L959.375,1026.1963 L948.9583,1015.7796 " fill="url(#glwl49mazzv4q2)" style="stroke:#181818;stroke-width:1.0416666666666667;"/><text fill="#FFFFFF" font-family="&quot;Verdana&quot;" font-size="12.5" lengthAdjust="spacing" textLength="618.75" x="314.5833" y="1043.4896">Mutations in this step: UpsertAppointmentBookingFlowSettingMutation and UpsertServiceSettingMutation</text><rect fill="url(#glwl49mazzv4q1)" filter="url(#flwl49mazzv4q)" height="56.3883" rx="4.1667" ry="4.1667" style="stroke:#2196F3;stroke-width:0.5208333333333334;" width="68.75" x="980.2083" y="1010.5713"/><text fill="#FFFFFF" font-family="&quot;Verdana&quot;" font-size="12.5" lengthAdjust="spacing" textLength="27.0833" x="1001.0417" y="1043.4896">Save</text><ellipse cx="1014.5833" cy="1098.2096" fill="none" filter="url(#flwl49mazzv4q)" rx="10.4167" ry="10.4167" style="stroke:#9C27B0;stroke-width:1.5625;"/><line style="stroke:#9C27B0;stroke-width:2.604166666666667;" x1="1008.1383" x2="1021.0283" y1="1091.7647" y2="1104.6546"/><line style="stroke:#9C27B0;stroke-width:2.604166666666667;" x1="1021.0283" x2="1008.1383" y1="1091.7647" y2="1104.6546"/><rect fill="url(#glwl49mazzv4q1)" filter="url(#flwl49mazzv4q)" height="56.3883" rx="4.1667" ry="4.1667" style="stroke:#2196F3;stroke-width:0.5208333333333334;" width="75" x="1078.125" y="1010.5713"/><text fill="#FFFFFF" font-family="&quot;Verdana&quot;" font-size="12.5" lengthAdjust="spacing" textLength="33.3333" x="1098.9583" y="1043.4896">Reset</text><ellipse cx="1115.625" cy="1098.2096" fill="none" filter="url(#flwl49mazzv4q)" rx="10.4167" ry="10.4167" style="stroke:#9C27B0;stroke-width:1.5625;"/><line style="stroke:#9C27B0;stroke-width:2.604166666666667;" x1="1109.18" x2="1122.07" y1="1091.7647" y2="1104.6546"/><line style="stroke:#9C27B0;stroke-width:2.604166666666667;" x1="1122.07" x2="1109.18" y1="1091.7647" y2="1104.6546"/><ellipse cx="1204.1667" cy="998.5921" fill="none" filter="url(#flwl49mazzv4q)" rx="10.4167" ry="10.4167" style="stroke:#9C27B0;stroke-width:1.5625;"/><line style="stroke:#9C27B0;stroke-width:2.604166666666667;" x1="1197.7217" x2="1210.6117" y1="992.1471" y2="1005.0371"/><line style="stroke:#9C27B0;stroke-width:2.604166666666667;" x1="1210.6117" x2="1197.7217" y1="992.1471" y2="1005.0371"/><line style="stroke:#2196F3;stroke-width:3.125;" x1="964.8438" x2="964.8438" y1="98.4945" y2="119.3278"/><polygon fill="#2196F3" points="960.6771,108.9111,964.8438,119.3278,969.0104,108.9111,964.8438,113.0778" style="stroke:#2196F3;stroke-width:1.0416666666666667;"/><line style="stroke:#2196F3;stroke-width:3.125;" x1="964.8438" x2="964.8438" y1="175.7161" y2="196.5495"/><polygon fill="#2196F3" points="960.6771,186.1328,964.8438,196.5495,969.0104,186.1328,964.8438,190.2995" style="stroke:#2196F3;stroke-width:1.0416666666666667;"/><line style="stroke:#2196F3;stroke-width:3.125;" x1="739.0625" x2="739.0625" y1="422.1029" y2="457.6579"/><polygon fill="#2196F3" points="734.8958,447.2412,739.0625,457.6579,743.2292,447.2412,739.0625,451.4079" style="stroke:#2196F3;stroke-width:1.0416666666666667;"/><line style="stroke:#2196F3;stroke-width:3.125;" x1="134.8958" x2="134.8958" y1="693.4896" y2="729.9479"/><polygon fill="#2196F3" points="130.7292,719.5313,134.8958,729.9479,139.0625,719.5313,134.8958,723.6979" style="stroke:#2196F3;stroke-width:1.0416666666666667;"/><line style="stroke:#2196F3;stroke-width:3.125;" x1="363.0208" x2="363.0208" y1="693.4896" y2="729.9479"/><polygon fill="#2196F3" points="358.8542,719.5313,363.0208,729.9479,367.1875,719.5313,363.0208,723.6979" style="stroke:#2196F3;stroke-width:1.0416666666666667;"/><line style="stroke:#2196F3;stroke-width:3.125;" x1="534.375" x2="534.375" y1="767.0654" y2="787.8988"/><polygon fill="#2196F3" points="530.2083,777.4821,534.375,787.8988,538.5417,777.4821,534.375,781.6488" style="stroke:#2196F3;stroke-width:1.0416666666666667;"/><line style="stroke:#2196F3;stroke-width:3.125;" x1="655.2083" x2="655.2083" y1="767.0654" y2="787.8988"/><polygon fill="#2196F3" points="651.0417,777.4821,655.2083,787.8988,659.375,777.4821,655.2083,781.6488" style="stroke:#2196F3;stroke-width:1.0416666666666667;"/><line style="stroke:#2196F3;stroke-width:3.125;" x1="786.9792" x2="786.9792" y1="767.0654" y2="787.8988"/><polygon fill="#2196F3" points="782.8125,777.4821,786.9792,787.8988,791.1458,777.4821,786.9792,781.6488" style="stroke:#2196F3;stroke-width:1.0416666666666667;"/><line style="stroke:#2196F3;stroke-width:3.125;" x1="917.1875" x2="917.1875" y1="767.0654" y2="787.8988"/><polygon fill="#2196F3" points="913.0208,777.4821,917.1875,787.8988,921.3542,777.4821,917.1875,781.6488" style="stroke:#2196F3;stroke-width:1.0416666666666667;"/><line style="stroke:#2196F3;stroke-width:3.125;" x1="1044.2708" x2="1044.2708" y1="767.0654" y2="787.8988"/><polygon fill="#2196F3" points="1040.1042,777.4821,1044.2708,787.8988,1048.4375,777.4821,1044.2708,781.6488" style="stroke:#2196F3;stroke-width:1.0416666666666667;"/><line style="stroke:#2196F3;stroke-width:3.125;" x1="1156.25" x2="1156.25" y1="767.0654" y2="787.8988"/><polygon fill="#2196F3" points="1152.0833,777.4821,1156.25,787.8988,1160.4167,777.4821,1156.25,781.6488" style="stroke:#2196F3;stroke-width:1.0416666666666667;"/><line style="stroke:#2196F3;stroke-width:3.125;" x1="1277.6042" x2="1277.6042" y1="767.0654" y2="787.8988"/><polygon fill="#2196F3" points="1273.4375,777.4821,1277.6042,787.8988,1281.7708,777.4821,1277.6042,781.6488" style="stroke:#2196F3;stroke-width:1.0416666666666667;"/><line style="stroke:#2196F3;stroke-width:3.125;" x1="534.375" x2="534.375" y1="844.2871" y2="865.1204"/><polygon fill="#2196F3" points="530.2083,854.7038,534.375,865.1204,538.5417,854.7038,534.375,858.8704" style="stroke:#2196F3;stroke-width:1.0416666666666667;"/><line style="stroke:#2196F3;stroke-width:3.125;" x1="655.2083" x2="655.2083" y1="844.2871" y2="865.1204"/><polygon fill="#2196F3" points="651.0417,854.7038,655.2083,865.1204,659.375,854.7038,655.2083,858.8704" style="stroke:#2196F3;stroke-width:1.0416666666666667;"/><line style="stroke:#2196F3;stroke-width:3.125;" x1="786.9792" x2="786.9792" y1="844.2871" y2="865.1204"/><polygon fill="#2196F3" points="782.8125,854.7038,786.9792,865.1204,791.1458,854.7038,786.9792,858.8704" style="stroke:#2196F3;stroke-width:1.0416666666666667;"/><line style="stroke:#2196F3;stroke-width:3.125;" x1="917.1875" x2="917.1875" y1="844.2871" y2="865.1204"/><polygon fill="#2196F3" points="913.0208,854.7038,917.1875,865.1204,921.3542,854.7038,917.1875,858.8704" style="stroke:#2196F3;stroke-width:1.0416666666666667;"/><line style="stroke:#2196F3;stroke-width:3.125;" x1="1044.2708" x2="1044.2708" y1="844.2871" y2="865.1204"/><polygon fill="#2196F3" points="1040.1042,854.7038,1044.2708,865.1204,1048.4375,854.7038,1044.2708,858.8704" style="stroke:#2196F3;stroke-width:1.0416666666666667;"/><line style="stroke:#2196F3;stroke-width:3.125;" x1="1156.25" x2="1156.25" y1="844.2871" y2="865.1204"/><polygon fill="#2196F3" points="1152.0833,854.7038,1156.25,865.1204,1160.4167,854.7038,1156.25,858.8704" style="stroke:#2196F3;stroke-width:1.0416666666666667;"/><line style="stroke:#2196F3;stroke-width:3.125;" x1="1277.6042" x2="1277.6042" y1="844.2871" y2="865.1204"/><polygon fill="#2196F3" points="1273.4375,854.7038,1277.6042,865.1204,1281.7708,854.7038,1277.6042,858.8704" style="stroke:#2196F3;stroke-width:1.0416666666666667;"/><line style="stroke:#2196F3;stroke-width:3.125;" x1="914.5833" x2="914.5833" y1="693.4896" y2="765.5029"/><polygon fill="#2196F3" points="910.4167,755.0863,914.5833,765.5029,918.75,755.0863,914.5833,759.2529" style="stroke:#2196F3;stroke-width:1.0416666666666667;"/><text fill="#222222" font-family="&quot;Verdana&quot;" font-size="12.5" lengthAdjust="spacing" textLength="537.5" x="929.1667" y="734.2204">Based on the booking sequence, Service, employee and availability order will be changed</text><line style="stroke:#2196F3;stroke-width:3.125;" x1="726.5625" x2="134.8958" y1="572.5179" y2="572.5179"/><line style="stroke:#2196F3;stroke-width:3.125;" x1="134.8958" x2="134.8958" y1="572.5179" y2="637.1012"/><polygon fill="#2196F3" points="130.7292,626.6846,134.8958,637.1012,139.0625,626.6846,134.8958,630.8512" style="stroke:#2196F3;stroke-width:1.0416666666666667;"/><line style="stroke:#2196F3;stroke-width:3.125;" x1="751.5625" x2="914.5833" y1="572.5179" y2="572.5179"/><line style="stroke:#2196F3;stroke-width:3.125;" x1="914.5833" x2="914.5833" y1="572.5179" y2="637.1012"/><polygon fill="#2196F3" points="910.4167,626.6846,914.5833,637.1012,918.75,626.6846,914.5833,630.8512" style="stroke:#2196F3;stroke-width:1.0416666666666667;"/><line style="stroke:#2196F3;stroke-width:3.125;" x1="363.0208" x2="363.0208" y1="572.5179" y2="637.1012"/><polygon fill="#2196F3" points="358.8542,626.6846,363.0208,637.1012,367.1875,626.6846,363.0208,630.8512" style="stroke:#2196F3;stroke-width:1.0416666666666667;"/><line style="stroke:#2196F3;stroke-width:3.125;" x1="134.8958" x2="134.8958" y1="786.3363" y2="888.0371"/><line style="stroke:#2196F3;stroke-width:3.125;" x1="134.8958" x2="726.5625" y1="888.0371" y2="888.0371"/><polygon fill="#2196F3" points="716.1458,883.8704,726.5625,888.0371,716.1458,892.2038,720.3125,888.0371" style="stroke:#2196F3;stroke-width:1.0416666666666667;"/><line style="stroke:#2196F3;stroke-width:3.125;" x1="914.5833" x2="914.5833" y1="866.6829" y2="888.0371"/><line style="stroke:#2196F3;stroke-width:3.125;" x1="914.5833" x2="751.5625" y1="888.0371" y2="888.0371"/><polygon fill="#2196F3" points="761.9792,883.8704,751.5625,888.0371,761.9792,892.2038,757.8125,888.0371" style="stroke:#2196F3;stroke-width:1.0416666666666667;"/><line style="stroke:#2196F3;stroke-width:3.125;" x1="363.0208" x2="363.0208" y1="786.3363" y2="888.0371"/><polygon fill="#2196F3" points="358.8542,877.6204,363.0208,888.0371,367.1875,877.6204,363.0208,881.7871" style="stroke:#2196F3;stroke-width:1.0416666666666667;"/><line style="stroke:#2196F3;stroke-width:3.125;" x1="739.0625" x2="739.0625" y1="514.0462" y2="560.0179"/><polygon fill="#2196F3" points="734.8958,549.6012,739.0625,560.0179,743.2292,549.6012,739.0625,553.7679" style="stroke:#2196F3;stroke-width:1.0416666666666667;"/><text fill="#222222" font-family="&quot;Verdana&quot;" font-size="12.5" lengthAdjust="spacing" textLength="572.9167" x="753.6458" y="537.6221">Object returned from useAppointmentBookingFlow is being passed in the following components</text><line style="stroke:#2196F3;stroke-width:3.125;" x1="1725.5208" x2="1725.5208" y1="407.3812" y2="442.9362"/><polygon fill="#2196F3" points="1721.3542,432.5195,1725.5208,442.9362,1729.6875,432.5195,1725.5208,436.6862" style="stroke:#2196F3;stroke-width:1.0416666666666667;"/><line style="stroke:#2196F3;stroke-width:3.125;" x1="1882.2917" x2="1882.2917" y1="652.1362" y2="688.5946"/><polygon fill="#2196F3" points="1878.125,678.1779,1882.2917,688.5946,1886.4583,678.1779,1882.2917,682.3446" style="stroke:#2196F3;stroke-width:1.0416666666666667;"/><line style="stroke:#2196F3;stroke-width:3.125;" x1="739.0625" x2="739.0625" y1="309.3262" y2="365.7145"/><polygon fill="#2196F3" points="734.8958,355.2979,739.0625,365.7145,743.2292,355.2979,739.0625,359.4645" style="stroke:#2196F3;stroke-width:1.0416666666666667;"/><line style="stroke:#2196F3;stroke-width:3.125;" x1="739.0625" x2="739.0625" y1="900.5371" y2="921.3704"/><polygon fill="#2196F3" points="734.8958,910.9538,739.0625,921.3704,743.2292,910.9538,739.0625,915.1204" style="stroke:#2196F3;stroke-width:1.0416666666666667;"/><line style="stroke:#2196F3;stroke-width:3.125;" x1="1725.5208" x2="1725.5208" y1="309.3262" y2="350.9928"/><polygon fill="#2196F3" points="1721.3542,340.5762,1725.5208,350.9928,1729.6875,340.5762,1725.5208,344.7428" style="stroke:#2196F3;stroke-width:1.0416666666666667;"/><line style="stroke:#2196F3;stroke-width:3.125;" x1="830.7292" x2="1650" y1="291.5487" y2="291.5487"/><polygon fill="#2196F3" points="1639.5833,287.382,1650,291.5487,1639.5833,295.7153,1643.75,291.5487" style="stroke:#2196F3;stroke-width:1.0416666666666667;"/><line style="stroke:#2196F3;stroke-width:3.125;" x1="964.8438" x2="964.8438" y1="252.9378" y2="258.1462"/><line style="stroke:#2196F3;stroke-width:3.125;" x1="964.8438" x2="739.0625" y1="258.1462" y2="258.1462"/><line style="stroke:#2196F3;stroke-width:3.125;" x1="739.0625" x2="739.0625" y1="258.1462" y2="273.7712"/><polygon fill="#2196F3" points="734.8958,263.3545,739.0625,273.7712,743.2292,263.3545,739.0625,267.5212" style="stroke:#2196F3;stroke-width:1.0416666666666667;"/><line style="stroke:#2196F3;stroke-width:3.125;" x1="1801.0417" x2="1882.2917" y1="291.5487" y2="291.5487"/><line style="stroke:#2196F3;stroke-width:3.125;" x1="1882.2917" x2="1882.2917" y1="291.5487" y2="595.7479"/><polygon fill="#2196F3" points="1878.125,585.3312,1882.2917,595.7479,1886.4583,585.3312,1882.2917,589.4979" style="stroke:#2196F3;stroke-width:1.0416666666666667;"/><line style="stroke:#2196F3;stroke-width:3.125;" x1="739.0625" x2="964.8438" y1="921.3704" y2="921.3704"/><line style="stroke:#2196F3;stroke-width:3.125;" x1="1014.5833" x2="1014.5833" y1="1066.9596" y2="1087.793"/><polygon fill="#2196F3" points="1010.4167,1077.3763,1014.5833,1087.793,1018.75,1077.3763,1014.5833,1081.543" style="stroke:#2196F3;stroke-width:1.0416666666666667;"/><line style="stroke:#2196F3;stroke-width:3.125;" x1="1115.625" x2="1115.625" y1="1066.9596" y2="1087.793"/><polygon fill="#2196F3" points="1111.4583,1077.3763,1115.625,1087.793,1119.7917,1077.3763,1115.625,1081.543" style="stroke:#2196F3;stroke-width:1.0416666666666667;"/><line style="stroke:#2196F3;stroke-width:3.125;" x1="1014.5833" x2="1014.5833" y1="989.738" y2="1010.5713"/><polygon fill="#2196F3" points="1010.4167,1000.1546,1014.5833,1010.5713,1018.75,1000.1546,1014.5833,1004.3213" style="stroke:#2196F3;stroke-width:1.0416666666666667;"/><line style="stroke:#2196F3;stroke-width:3.125;" x1="1115.625" x2="1115.625" y1="989.738" y2="1010.5713"/><polygon fill="#2196F3" points="1111.4583,1000.1546,1115.625,1010.5713,1119.7917,1000.1546,1115.625,1004.3213" style="stroke:#2196F3;stroke-width:1.0416666666666667;"/><line style="stroke:#2196F3;stroke-width:3.125;" x1="892.9688" x2="725.5208" y1="959.9813" y2="959.9813"/><line style="stroke:#2196F3;stroke-width:3.125;" x1="725.5208" x2="725.5208" y1="959.9813" y2="988.1755"/><polygon fill="#2196F3" points="721.3542,977.7588,725.5208,988.1755,729.6875,977.7588,725.5208,981.9255" style="stroke:#2196F3;stroke-width:1.0416666666666667;"/><line style="stroke:#2196F3;stroke-width:3.125;" x1="1036.7188" x2="1204.1667" y1="959.9813" y2="959.9813"/><line style="stroke:#2196F3;stroke-width:3.125;" x1="1204.1667" x2="1204.1667" y1="959.9813" y2="988.1755"/><polygon fill="#2196F3" points="1200,977.7588,1204.1667,988.1755,1208.3333,977.7588,1204.1667,981.9255" style="stroke:#2196F3;stroke-width:1.0416666666666667;"/><line style="stroke:#2196F3;stroke-width:3.125;" x1="964.8438" x2="964.8438" y1="921.3704" y2="942.2038"/><polygon fill="#2196F3" points="960.6771,931.7871,964.8438,942.2038,969.0104,931.7871,964.8438,935.9538" style="stroke:#2196F3;stroke-width:1.0416666666666667;"/><!--MD5=[43272d8d0d06b50dbfc42e323cb66380]
@startuml Code Flow Diagram

!include https://raw.githubusercontent.com/bschwarz/puml-themes/master/themes/materia/puml-theme-materia.puml

title Basic Code Flow Diagram

start

:Hook is Registed for AppointmentBookingFlowPage;

:AppointmentBookingFlowPage;

note right
Query: AppointmentBookingFlowPageQuery
end note

if(Any Location available?) then (yes)

:AppointmentBookingFlowMaster;

:useAppointmentBookingFlow;

-> Object returned from useAppointmentBookingFlow is being passed in the following components;

note right
It returns Data from the query stored in variable named value, an empty state and functions: save, loading and reset.
end note

switch()

case ()
  :Header;
  :Allow booking from Booking Portal;
case () 
  :Sequence;
  :Select Booking Sequence;
case ()
  :Steps;
    ->Based on the booking sequence, Service, employee and availability order will be changed;
  split
  :Service;
  split again
  :Employee;
  split again
  :Availability;
  split again
  :Resource;
  split again
  :Customer;
  split again
  :Cart;
  split again
  :Confirmation;
end split

endswitch

elseif (No active location)
:Show Location Empty State;
end

else (error)
:Error;
end

endif

if(values changed?) then(yes)

split
:Save;

note left
Mutations in this step: UpsertAppointmentBookingFlowSettingMutation and UpsertServiceSettingMutation
end note

end

split again
:Reset;
end
end split

else (no)
end


@enduml

@startuml Code Flow Diagram




skinparam backgroundColor transparent
skinparam useBetaStyle false







skinparam defaultFontName       "Verdana"
skinparam defaultFontSize       12
skinparam dpi                   100
skinparam shadowing             true
skinparam roundcorner           8
skinparam ParticipantPadding    40
skinparam BoxPadding            40
skinparam Padding               10
skinparam ArrowColor            #666
skinparam stereotype {
    CBackgroundColor #fff
    CBorderColor #cccccc
    ABackgroundColor #70bf73
    ABorderColor #3D8C40
    IBackgroundColor #B7161C
    IBorderColor #b7161c
    EBackgroundColor #ffad33
    EBorderColor #CC7A00
    NBackgroundColor #b052c0
    NBorderColor #7D1F8D
}
skinparam title {
	FontColor	                 #2196F3
	BorderColor	                 #cccccc
	FontSize	    	         20
	BorderRoundCorner            8
	BorderThickness 	         1
	BackgroundColor              #fff-#fff
}

skinparam legend {
	BackgroundColor #fff
	BorderColor #cccccc
	FontColor #222
}

skinparam swimlane {
	BorderColor #9C27B0
	BorderThickness 2
	TitleBackgroundColor  #fff-#fff
	TitleFontColor #2196F3
}


skinparam activity {
		FontColor #FFF
	BorderColor #2196F3
	BackgroundColor #4dabf5-#2196F3
	BarColor #4CAF50
	StartColor #9C27B0
	EndColor #9C27B0
	DiamondBackgroundColor #FFF-#fff
  	DiamondBorderColor #cccccc
	DiamondFontColor #222
}


skinparam participant {
		FontColor #FFF
	BorderColor #2196F3
	BackgroundColor #4dabf5-#2196F3
	ParticipantBorderThickness 2
}


skinparam actor {
		FontColor #FFF
	BorderColor #2196F3
	BackgroundColor #4dabf5-#2196F3
	FontColor #222
}


skinparam arrow {
	Thickness 3
	Color #2196F3
	FontColor #222
}


skinparam sequence {
	BorderColor #2196F3
	TitleFontColor #2196F3
	BackgroundColor transparent
	StartColor #2196F3
	EndColor #2196F3
	BoxBackgroundColor transparent
	BoxBorderColor #666
	BoxFontColor #222
	DelayFontColor #222
	LifeLineBorderColor #cccccc
	LifeLineBorderThickness 2
	LifeLineBackgroundColor #fff
	GroupBorderColor #666
	GroupFontColor #222
	GroupHeaderFontColor #FFF
	GroupBackgroundColor transparent
	GroupBodyBackgroundColor transparent
	GroupHeaderBackgroundColor transparent
	DividerBackgroundColor #FFF-#fff
    DividerBorderColor #666
    DividerBorderThickness 2
    DividerFontColor #222
	ReferenceBackgroundColor transparent
	ReferenceBorderColor #666
	ReferenceFontColor #222
	ReferenceHeaderFontColor #9C27B0
	StereotypeFontColor #FFF
}


skinparam partition {
	BorderColor #2196F3
	FontColor #2196F3
	BackgroundColor transparent
}


skinparam collections {
		FontColor #FFF
	BorderColor #2196F3
	BackgroundColor #4dabf5-#2196F3
}


skinparam control {
		FontColor #FFF
	BorderColor #2196F3
	BackgroundColor #4dabf5-#2196F3
	FontColor #222
}


skinparam entity {
		FontColor #FFF
	BorderColor #2196F3
	BackgroundColor #4dabf5-#2196F3
	FontColor #222
}


skinparam boundary {
		FontColor #FFF
	BorderColor #2196F3
	BackgroundColor #4dabf5-#2196F3
	FontColor #222
}


skinparam agent {
	BackgroundColor #orange
	BorderColor #999999
	FontColor #333333
}


skinparam note {
	BorderThickness 1
	BackgroundColor #b052c0-#9C27B0
	BorderColor #9C27B0
	FontColor #FFF
}


skinparam artifact {
	BackgroundColor #FFF-#fff
	BorderColor #666
	FontColor #666
}


skinparam component {
		FontColor #FFF
	BorderColor #2196F3
	BackgroundColor #4dabf5-#2196F3
}


skinparam interface {
	BackgroundColor  #B7161C
	BorderColor  #e51c23
	FontColor #222
}


skinparam storage {
	BackgroundColor #ffad33-#ff9800
  	BorderColor #ff9800
	FontColor #FFF
}


skinparam node {
	BackgroundColor #fff-#fff
	BorderColor #222
	FontColor #222
}


skinparam cloud {
	BackgroundColor transparent
	BorderColor #F2FCFE
	FontColor #222
}


skinparam database {
		FontColor #FFF
	BorderColor #2196F3
	BackgroundColor #4dabf5-#2196F3
	FontColor #222
}


skinparam class {
		FontColor #FFF
	BorderColor #2196F3
	BackgroundColor #4dabf5-#2196F3
	HeaderBackgroundColor #2196F3-#1a78c2
	StereotypeFontColor #222
	BorderThickness 1
	AttributeFontColor #fff
	AttributeFontSize 11
}


skinparam object {
		FontColor #FFF
	BorderColor #2196F3
	BackgroundColor #4dabf5-#2196F3
	StereotypeFontColor #222
	BorderThickness 1
	AttributeFontColor #222
	AttributeFontSize 11
}


skinparam usecase {
		FontColor #FFF
	BorderColor #2196F3
	BackgroundColor #4dabf5-#2196F3
	BorderThickness 2
	StereotypeFontColor #2196F3
}


skinparam rectangle {
	FontColor #2196F3
	BackgroundColor #fff-#fff
	BorderThickness 2
	StereotypeFontColor #2196F3
}


skinparam package {
		FontColor #FFF
	BorderColor #2196F3
	BackgroundColor #4dabf5-#2196F3
	BackgroundColor #fff-#fff
	BorderThickness 2
}


skinparam folder {
	BackgroundColor #FFF-#fff
  	BorderColor #ff9800
	FontColor #ff9800
	BorderThickness 2
}


skinparam frame {
	BackgroundColor #FFF-#fff
  	BorderColor #9C27B0
	FontColor #9C27B0
	BorderThickness 2
}


skinparam state {
		FontColor #FFF
	BorderColor #2196F3
	BackgroundColor #4dabf5-#2196F3
	BorderColor #1a78c2
	StartColor #9C27B0
	EndColor #9C27B0
	AttributeFontColor #222
	AttributeFontSize 11
}


skinparam queue {
		FontColor #FFF
	BorderColor #2196F3
	BackgroundColor #4dabf5-#2196F3
}


skinparam card {
	BackgroundColor #b052c0-#9C27B0
	BorderColor #9C27B0
	FontColor #FFF
}


skinparam file {
	BackgroundColor #fff-#fff
	BorderColor #666
	FontColor #666

}


skinparam stack {
		FontColor #FFF
	BorderColor #2196F3
	BackgroundColor #4dabf5-#2196F3
}

title Basic Code Flow Diagram

start

:Hook is Registed for AppointmentBookingFlowPage;

:AppointmentBookingFlowPage;

note right
Query: AppointmentBookingFlowPageQuery
end note

if(Any Location available?) then (yes)

:AppointmentBookingFlowMaster;

:useAppointmentBookingFlow;

-> Object returned from useAppointmentBookingFlow is being passed in the following components;

note right
It returns Data from the query stored in variable named value, an empty state and functions: save, loading and reset.
end note

switch()

case ()
  :Header;
  :Allow booking from Booking Portal;
case () 
  :Sequence;
  :Select Booking Sequence;
case ()
  :Steps;
    ->Based on the booking sequence, Service, employee and availability order will be changed;
  split
  :Service;
  split again
  :Employee;
  split again
  :Availability;
  split again
  :Resource;
  split again
  :Customer;
  split again
  :Cart;
  split again
  :Confirmation;
end split

endswitch

elseif (No active location)
:Show Location Empty State;
end

else (error)
:Error;
end

endif

if(values changed?) then(yes)

split
:Save;

note left
Mutations in this step: UpsertAppointmentBookingFlowSettingMutation and UpsertServiceSettingMutation
end note

end

split again
:Reset;
end
end split

else (no)
end


@enduml

PlantUML version 1.2022.7(Mon Aug 22 22:31:30 IST 2022)
(GPL source distribution)
Java Runtime: Java(TM) SE Runtime Environment
JVM: Java HotSpot(TM) 64-Bit Server VM
Default Encoding: UTF-8
Language: en
Country: IN
--></g></svg>