<?xml version="1.0" encoding="UTF-8" standalone="no"?><svg xmlns="http://www.w3.org/2000/svg" xmlns:xlink="http://www.w3.org/1999/xlink" contentStyleType="text/css" height="1330.2083px" preserveAspectRatio="none" style="width:1945px;height:1330px;background:#00000000;" version="1.1" viewBox="0 0 1945 1330" width="1945.8333px" zoomAndPan="magnify"><defs><linearGradient id="g11ozxllcoob0" x1="50%" x2="50%" y1="0%" y2="100%"><stop offset="0%" stop-color="#FFFFFF"/><stop offset="100%" stop-color="#FFFFFF"/></linearGradient><filter height="300%" id="f11ozxllcoob" width="300%" x="-1" y="-1"><feGaussianBlur result="blurOut" stdDeviation="2.0833333333333335"/><feColorMatrix in="blurOut" result="blurOut2" type="matrix" values="0 0 0 0 0 0 0 0 0 0 0 0 0 0 0 0 0 0 .4 0"/><feOffset dx="4.166666666666667" dy="4.166666666666667" in="blurOut2" result="blurOut3"/><feBlend in="SourceGraphic" in2="blurOut3" mode="normal"/></filter><linearGradient id="g11ozxllcoob1" x1="50%" x2="50%" y1="0%" y2="100%"><stop offset="0%" stop-color="#B052C0"/><stop offset="100%" stop-color="#9C27B0"/></linearGradient><linearGradient id="g11ozxllcoob2" x1="50%" x2="50%" y1="0%" y2="100%"><stop offset="0%" stop-color="#4DABF5"/><stop offset="100%" stop-color="#2196F3"/></linearGradient></defs><g><rect fill="url(#g11ozxllcoob0)" height="55.7861" id="_title" rx="4.1667" ry="4.1667" style="stroke:#CCCCCC;stroke-width:1.0416666666666667;" width="241.6667" x="850.9115" y="15.625"/><text fill="#2196F3" font-family="&quot;Verdana&quot;" font-size="20.8333" font-weight="bold" lengthAdjust="spacing" textLength="210.4167" x="866.5365" y="51.3916">Code Flow Diagram</text><ellipse cx="987.1094" cy="88.0778" fill="#9C27B0" filter="url(#f11ozxllcoob)" rx="10.4167" ry="10.4167" style="stroke:#222222;stroke-width:1.0416666666666667;"/><path d="M1118.3594,117.1753 L1118.3594,143.3553 L1097.526,147.522 L1118.3594,151.6886 L1118.3594,177.8687 A0,0 0 0 0 1118.3594,177.8687 L1419.401,177.8687 A0,0 0 0 0 1419.401,177.8687 L1419.401,127.592 L1408.9844,117.1753 L1118.3594,117.1753 A0,0 0 0 0 1118.3594,117.1753 " fill="url(#g11ozxllcoob1)" filter="url(#f11ozxllcoob)" style="stroke:#181818;stroke-width:1.0416666666666667;"/><path d="M1408.9844,117.1753 L1408.9844,127.592 L1419.401,127.592 L1408.9844,117.1753 " fill="url(#g11ozxllcoob1)" style="stroke:#181818;stroke-width:1.0416666666666667;"/><text fill="#FFFFFF" font-family="&quot;Verdana&quot;" font-size="12.5" lengthAdjust="spacing" textLength="258.3333" x="1135.026" y="144.8853">Query: AppointmentBookingFlowPageQuery</text><text fill="#FFFFFF" font-family="&quot;Verdana&quot;" font-size="12.5" lengthAdjust="spacing" textLength="197.9167" x="1135.026" y="159.6069">Skipped when there's no location</text><rect fill="url(#g11ozxllcoob2)" filter="url(#f11ozxllcoob)" height="56.3883" rx="4.1667" ry="4.1667" style="stroke:#2196F3;stroke-width:0.5208333333333334;" width="220.8333" x="876.6927" y="119.3278"/><text fill="#FFFFFF" font-family="&quot;Verdana&quot;" font-size="12.5" lengthAdjust="spacing" textLength="179.1667" x="897.526" y="152.2461">AppointmentBookingFlowPage</text><polygon fill="url(#g11ozxllcoob0)" filter="url(#f11ozxllcoob)" points="666.9271,198.702,825.2604,198.702,837.7604,216.4795,825.2604,234.257,666.9271,234.257,654.4271,216.4795,666.9271,198.702" style="stroke:#CCCCCC;stroke-width:0.5208333333333334;"/><text fill="#222222" font-family="&quot;Verdana&quot;" font-size="12.5" lengthAdjust="spacing" textLength="19.7917" x="760.6771" y="256.7586">yes</text><text fill="#222222" font-family="&quot;Verdana&quot;" font-size="12.5" lengthAdjust="spacing" textLength="137.5" x="677.3438" y="221.2036">Any Location available?</text><rect fill="url(#g11ozxllcoob2)" filter="url(#f11ozxllcoob)" height="56.3883" rx="4.1667" ry="4.1667" style="stroke:#2196F3;stroke-width:0.5208333333333334;" width="232.2917" x="629.9479" y="290.6453"/><text fill="#FFFFFF" font-family="&quot;Verdana&quot;" font-size="12.5" lengthAdjust="spacing" textLength="190.625" x="650.7813" y="323.5636">AppointmentBookingFlowMaster</text><path d="M873.1771,387.797 L873.1771,406.6162 L852.3438,410.7829 L873.1771,414.9495 L873.1771,433.7687 A0,0 0 0 0 873.1771,433.7687 L1613.8021,433.7687 A0,0 0 0 0 1613.8021,433.7687 L1613.8021,398.2137 L1603.3854,387.797 L873.1771,387.797 A0,0 0 0 0 873.1771,387.797 " fill="url(#g11ozxllcoob1)" filter="url(#f11ozxllcoob)" style="stroke:#181818;stroke-width:1.0416666666666667;"/><path d="M1603.3854,387.797 L1603.3854,398.2137 L1613.8021,398.2137 L1603.3854,387.797 " fill="url(#g11ozxllcoob1)" style="stroke:#181818;stroke-width:1.0416666666666667;"/><text fill="#FFFFFF" font-family="&quot;Verdana&quot;" font-size="12.5" lengthAdjust="spacing" textLength="697.9167" x="889.8438" y="415.507">Returns Data from the query stored in variable named value, an empty state and functions: save, loading and reset.</text><rect fill="url(#g11ozxllcoob2)" filter="url(#f11ozxllcoob)" height="56.3883" rx="4.1667" ry="4.1667" style="stroke:#2196F3;stroke-width:0.5208333333333334;" width="212.5" x="639.8438" y="382.5887"/><text fill="#FFFFFF" font-family="&quot;Verdana&quot;" font-size="12.5" lengthAdjust="spacing" textLength="170.8333" x="660.6771" y="415.507">useAppointmentBookingFlow</text><polygon fill="url(#g11ozxllcoob0)" filter="url(#f11ozxllcoob)" points="746.0938,484.9487,746.0938,484.9487,758.5938,497.4487,746.0938,509.9487,746.0938,509.9487,733.5938,497.4487,746.0938,484.9487" style="stroke:#CCCCCC;stroke-width:0.5208333333333334;"/><rect fill="url(#g11ozxllcoob2)" filter="url(#f11ozxllcoob)" height="56.3883" rx="4.1667" ry="4.1667" style="stroke:#2196F3;stroke-width:0.5208333333333334;" width="86.4583" x="91.6667" y="530.7821"/><text fill="#FFFFFF" font-family="&quot;Verdana&quot;" font-size="12.5" lengthAdjust="spacing" textLength="44.7917" x="112.5" y="563.7004">Header</text><rect fill="url(#g11ozxllcoob2)" filter="url(#f11ozxllcoob)" height="56.3883" rx="4.1667" ry="4.1667" style="stroke:#2196F3;stroke-width:0.5208333333333334;" width="246.875" x="11.4583" y="608.0037"/><text fill="#FFFFFF" font-family="&quot;Verdana&quot;" font-size="12.5" lengthAdjust="spacing" textLength="205.2083" x="32.2917" y="640.922">Allow booking from Booking Portal</text><rect fill="url(#g11ozxllcoob2)" filter="url(#f11ozxllcoob)" height="56.3883" rx="4.1667" ry="4.1667" style="stroke:#2196F3;stroke-width:0.5208333333333334;" width="98.9583" x="323.9583" y="530.7821"/><text fill="#FFFFFF" font-family="&quot;Verdana&quot;" font-size="12.5" lengthAdjust="spacing" textLength="57.2917" x="344.7917" y="563.7004">Sequence</text><rect fill="url(#g11ozxllcoob2)" filter="url(#f11ozxllcoob)" height="56.3883" rx="4.1667" ry="4.1667" style="stroke:#2196F3;stroke-width:0.5208333333333334;" width="188.5417" x="279.1667" y="608.0037"/><text fill="#FFFFFF" font-family="&quot;Verdana&quot;" font-size="12.5" lengthAdjust="spacing" textLength="146.875" x="300" y="640.922">Select Booking Sequence</text><rect fill="url(#g11ozxllcoob2)" filter="url(#f11ozxllcoob)" height="56.3883" rx="4.1667" ry="4.1667" style="stroke:#2196F3;stroke-width:0.5208333333333334;" width="73.9583" x="881.25" y="530.7821"/><text fill="#FFFFFF" font-family="&quot;Verdana&quot;" font-size="12.5" lengthAdjust="spacing" textLength="32.2917" x="902.0833" y="563.7004">Steps</text><line style="stroke:#2196F3;stroke-width:1.5625;" x1="631.7708" x2="1204.6875" y1="643.5588" y2="643.5588"/><rect fill="url(#g11ozxllcoob2)" filter="url(#f11ozxllcoob)" height="56.3883" rx="4.1667" ry="4.1667" style="stroke:#2196F3;stroke-width:0.5208333333333334;" width="257.2917" x="503.125" y="665.9546"/><text fill="#FFFFFF" font-family="&quot;Verdana&quot;" font-size="12.5" lengthAdjust="spacing" textLength="215.625" x="523.9583" y="698.8729">Service -&gt; Employee -&gt; Availability</text><rect fill="url(#g11ozxllcoob2)" filter="url(#f11ozxllcoob)" height="56.3883" rx="4.1667" ry="4.1667" style="stroke:#2196F3;stroke-width:0.5208333333333334;" width="257.2917" x="789.5833" y="665.9546"/><text fill="#FFFFFF" font-family="&quot;Verdana&quot;" font-size="12.5" lengthAdjust="spacing" textLength="215.625" x="810.4167" y="698.8729">Service -&gt; Availability -&gt; Employee</text><rect fill="url(#g11ozxllcoob2)" filter="url(#f11ozxllcoob)" height="56.3883" rx="4.1667" ry="4.1667" style="stroke:#2196F3;stroke-width:0.5208333333333334;" width="257.2917" x="1076.0417" y="665.9546"/><text fill="#FFFFFF" font-family="&quot;Verdana&quot;" font-size="12.5" lengthAdjust="spacing" textLength="215.625" x="1096.875" y="698.8729">Availability -&gt; Service -&gt; Employee</text><line style="stroke:#2196F3;stroke-width:1.5625;" x1="631.7708" x2="1204.6875" y1="743.1763" y2="743.1763"/><rect fill="url(#g11ozxllcoob2)" filter="url(#f11ozxllcoob)" height="56.3883" rx="4.1667" ry="4.1667" style="stroke:#2196F3;stroke-width:0.5208333333333334;" width="146.875" x="844.7917" y="781.1971"/><text fill="#FFFFFF" font-family="&quot;Verdana&quot;" font-size="12.5" lengthAdjust="spacing" textLength="105.2083" x="865.625" y="814.1154">Resource Options</text><rect fill="url(#g11ozxllcoob2)" filter="url(#f11ozxllcoob)" height="56.3883" rx="4.1667" ry="4.1667" style="stroke:#2196F3;stroke-width:0.5208333333333334;" width="148.9583" x="843.75" y="858.4188"/><text fill="#FFFFFF" font-family="&quot;Verdana&quot;" font-size="12.5" lengthAdjust="spacing" textLength="107.2917" x="864.5833" y="891.3371">Customer Options</text><rect fill="url(#g11ozxllcoob2)" filter="url(#f11ozxllcoob)" height="56.3883" rx="4.1667" ry="4.1667" style="stroke:#2196F3;stroke-width:0.5208333333333334;" width="116.6667" x="859.8958" y="935.6405"/><text fill="#FFFFFF" font-family="&quot;Verdana&quot;" font-size="12.5" lengthAdjust="spacing" textLength="75" x="880.7292" y="968.5588">Cart Options</text><rect fill="url(#g11ozxllcoob2)" filter="url(#f11ozxllcoob)" height="56.3883" rx="4.1667" ry="4.1667" style="stroke:#2196F3;stroke-width:0.5208333333333334;" width="168.75" x="833.8542" y="1012.8621"/><text fill="#FFFFFF" font-family="&quot;Verdana&quot;" font-size="12.5" lengthAdjust="spacing" textLength="127.0833" x="854.6875" y="1045.7804">Booking Confirmation</text><polygon fill="url(#g11ozxllcoob0)" filter="url(#f11ozxllcoob)" points="746.0938,1079.6672,746.0938,1079.6672,758.5938,1092.1672,746.0938,1104.6672,746.0938,1104.6672,733.5938,1092.1672,746.0938,1079.6672" style="stroke:#CCCCCC;stroke-width:0.5208333333333334;"/><polygon fill="url(#g11ozxllcoob0)" filter="url(#f11ozxllcoob)" points="1661.7188,198.702,1810.6771,198.702,1823.1771,216.4795,1810.6771,234.257,1661.7188,234.257,1649.2188,216.4795,1661.7188,198.702" style="stroke:#CCCCCC;stroke-width:0.5208333333333334;"/><text fill="#222222" font-family="&quot;Verdana&quot;" font-size="12.5" lengthAdjust="spacing" textLength="128.125" x="1672.1354" y="221.2036">No Location Available</text><text fill="#222222" font-family="&quot;Verdana&quot;" font-size="12.5" lengthAdjust="spacing" textLength="14.5833" x="1624.2188" y="203.4261">no</text><text fill="#222222" font-family="&quot;Verdana&quot;" font-size="12.5" lengthAdjust="spacing" textLength="30.2083" x="1833.5938" y="203.4261">error</text><rect fill="url(#g11ozxllcoob2)" filter="url(#f11ozxllcoob)" height="56.3883" rx="4.1667" ry="4.1667" style="stroke:#2196F3;stroke-width:0.5208333333333334;" width="200" x="1636.1979" y="275.9237"/><text fill="#FFFFFF" font-family="&quot;Verdana&quot;" font-size="12.5" lengthAdjust="spacing" textLength="158.3333" x="1657.0313" y="308.842">Show Location Empty State</text><ellipse cx="1736.1979" cy="378.2837" fill="none" filter="url(#f11ozxllcoob)" rx="10.4167" ry="10.4167" style="stroke:#9C27B0;stroke-width:1.5625;"/><line style="stroke:#9C27B0;stroke-width:2.604166666666667;" x1="1729.7529" x2="1742.6429" y1="371.8387" y2="384.7287"/><line style="stroke:#9C27B0;stroke-width:2.604166666666667;" x1="1742.6429" x2="1729.7529" y1="371.8387" y2="384.7287"/><rect fill="url(#g11ozxllcoob2)" filter="url(#f11ozxllcoob)" height="56.3883" rx="4.1667" ry="4.1667" style="stroke:#2196F3;stroke-width:0.5208333333333334;" width="71.875" x="1857.0313" y="659.4971"/><text fill="#FFFFFF" font-family="&quot;Verdana&quot;" font-size="12.5" lengthAdjust="spacing" textLength="30.2083" x="1877.8646" y="692.4154">Error</text><ellipse cx="1892.9688" cy="762.7604" fill="none" filter="url(#f11ozxllcoob)" rx="10.4167" ry="10.4167" style="stroke:#9C27B0;stroke-width:1.5625;"/><line style="stroke:#9C27B0;stroke-width:2.604166666666667;" x1="1886.5238" x2="1899.4137" y1="756.3154" y2="769.2054"/><line style="stroke:#9C27B0;stroke-width:2.604166666666667;" x1="1899.4137" x2="1886.5238" y1="756.3154" y2="769.2054"/><polygon fill="url(#g11ozxllcoob0)" filter="url(#f11ozxllcoob)" points="927.7344,1146.3338,1046.4844,1146.3338,1058.9844,1164.1113,1046.4844,1181.8888,927.7344,1181.8888,915.2344,1164.1113,927.7344,1146.3338" style="stroke:#CCCCCC;stroke-width:0.5208333333333334;"/><text fill="#222222" font-family="&quot;Verdana&quot;" font-size="12.5" lengthAdjust="spacing" textLength="97.9167" x="938.151" y="1168.8354">values changed?</text><text fill="#222222" font-family="&quot;Verdana&quot;" font-size="12.5" lengthAdjust="spacing" textLength="19.7917" x="885.026" y="1151.0579">yes</text><text fill="#222222" font-family="&quot;Verdana&quot;" font-size="12.5" lengthAdjust="spacing" textLength="14.5833" x="1069.401" y="1151.0579">no</text><line style="stroke:#2196F3;stroke-width:1.5625;" x1="702.7344" x2="1002.7344" y1="1192.3055" y2="1192.3055"/><path d="M185.026,1219.9097 L185.026,1265.8813 A0,0 0 0 0 185.026,1265.8813 L846.4844,1265.8813 A0,0 0 0 0 846.4844,1265.8813 L846.4844,1247.0622 L867.3177,1242.8955 L846.4844,1238.7288 L846.4844,1230.3263 L836.0677,1219.9097 L185.026,1219.9097 A0,0 0 0 0 185.026,1219.9097 " fill="url(#g11ozxllcoob1)" filter="url(#f11ozxllcoob)" style="stroke:#181818;stroke-width:1.0416666666666667;"/><path d="M836.0677,1219.9097 L836.0677,1230.3263 L846.4844,1230.3263 L836.0677,1219.9097 " fill="url(#g11ozxllcoob1)" style="stroke:#181818;stroke-width:1.0416666666666667;"/><text fill="#FFFFFF" font-family="&quot;Verdana&quot;" font-size="12.5" lengthAdjust="spacing" textLength="618.75" x="201.6927" y="1247.6196">Mutations in this step: UpsertAppointmentBookingFlowSettingMutation and UpsertServiceSettingMutation</text><rect fill="url(#g11ozxllcoob2)" filter="url(#f11ozxllcoob)" height="56.3883" rx="4.1667" ry="4.1667" style="stroke:#2196F3;stroke-width:0.5208333333333334;" width="68.75" x="867.3177" y="1214.7013"/><text fill="#FFFFFF" font-family="&quot;Verdana&quot;" font-size="12.5" lengthAdjust="spacing" textLength="27.0833" x="888.151" y="1247.6196">Save</text><ellipse cx="901.6927" cy="1302.3397" fill="none" filter="url(#f11ozxllcoob)" rx="10.4167" ry="10.4167" style="stroke:#9C27B0;stroke-width:1.5625;"/><line style="stroke:#9C27B0;stroke-width:2.604166666666667;" x1="895.2477" x2="908.1377" y1="1295.8947" y2="1308.7847"/><line style="stroke:#9C27B0;stroke-width:2.604166666666667;" x1="908.1377" x2="895.2477" y1="1295.8947" y2="1308.7847"/><path d="M1061.0677,1219.9097 L1061.0677,1238.7288 L1040.2344,1242.8955 L1061.0677,1247.0622 L1061.0677,1265.8813 A0,0 0 0 0 1061.0677,1265.8813 L1220.4427,1265.8813 A0,0 0 0 0 1220.4427,1265.8813 L1220.4427,1230.3263 L1210.026,1219.9097 L1061.0677,1219.9097 A0,0 0 0 0 1061.0677,1219.9097 " fill="url(#g11ozxllcoob1)" filter="url(#f11ozxllcoob)" style="stroke:#181818;stroke-width:1.0416666666666667;"/><path d="M1210.026,1219.9097 L1210.026,1230.3263 L1220.4427,1230.3263 L1210.026,1219.9097 " fill="url(#g11ozxllcoob1)" style="stroke:#181818;stroke-width:1.0416666666666667;"/><text fill="#FFFFFF" font-family="&quot;Verdana&quot;" font-size="12.5" lengthAdjust="spacing" textLength="116.6667" x="1077.7344" y="1247.6196">Values will be reset</text><rect fill="url(#g11ozxllcoob2)" filter="url(#f11ozxllcoob)" height="56.3883" rx="4.1667" ry="4.1667" style="stroke:#2196F3;stroke-width:0.5208333333333334;" width="75" x="965.2344" y="1214.7013"/><text fill="#FFFFFF" font-family="&quot;Verdana&quot;" font-size="12.5" lengthAdjust="spacing" textLength="33.3333" x="986.0677" y="1247.6196">Reset</text><ellipse cx="1002.7344" cy="1302.3397" fill="none" filter="url(#f11ozxllcoob)" rx="10.4167" ry="10.4167" style="stroke:#9C27B0;stroke-width:1.5625;"/><line style="stroke:#9C27B0;stroke-width:2.604166666666667;" x1="996.2894" x2="1009.1794" y1="1295.8947" y2="1308.7847"/><line style="stroke:#9C27B0;stroke-width:2.604166666666667;" x1="1009.1794" x2="996.2894" y1="1295.8947" y2="1308.7847"/><ellipse cx="1271.4844" cy="1202.7222" fill="none" filter="url(#f11ozxllcoob)" rx="10.4167" ry="10.4167" style="stroke:#9C27B0;stroke-width:1.5625;"/><line style="stroke:#9C27B0;stroke-width:2.604166666666667;" x1="1265.0394" x2="1277.9294" y1="1196.2772" y2="1209.1672"/><line style="stroke:#9C27B0;stroke-width:2.604166666666667;" x1="1277.9294" x2="1265.0394" y1="1196.2772" y2="1209.1672"/><line style="stroke:#2196F3;stroke-width:3.125;" x1="987.1094" x2="987.1094" y1="98.4945" y2="119.3278"/><polygon fill="#2196F3" points="982.9427,108.9111,987.1094,119.3278,991.276,108.9111,987.1094,113.0778" style="stroke:#2196F3;stroke-width:1.0416666666666667;"/><line style="stroke:#2196F3;stroke-width:3.125;" x1="746.0938" x2="746.0938" y1="347.0337" y2="382.5887"/><polygon fill="#2196F3" points="741.9271,372.172,746.0938,382.5887,750.2604,372.172,746.0938,376.3387" style="stroke:#2196F3;stroke-width:1.0416666666666667;"/><line style="stroke:#2196F3;stroke-width:3.125;" x1="134.8958" x2="134.8958" y1="587.1704" y2="608.0037"/><polygon fill="#2196F3" points="130.7292,597.5871,134.8958,608.0037,139.0625,597.5871,134.8958,601.7537" style="stroke:#2196F3;stroke-width:1.0416666666666667;"/><line style="stroke:#2196F3;stroke-width:3.125;" x1="373.4375" x2="373.4375" y1="587.1704" y2="608.0037"/><polygon fill="#2196F3" points="369.2708,597.5871,373.4375,608.0037,377.6042,597.5871,373.4375,601.7537" style="stroke:#2196F3;stroke-width:1.0416666666666667;"/><line style="stroke:#2196F3;stroke-width:3.125;" x1="631.7708" x2="631.7708" y1="645.1213" y2="665.9546"/><polygon fill="#2196F3" points="627.6042,655.5379,631.7708,665.9546,635.9375,655.5379,631.7708,659.7046" style="stroke:#2196F3;stroke-width:1.0416666666666667;"/><line style="stroke:#2196F3;stroke-width:3.125;" x1="918.2292" x2="918.2292" y1="645.1213" y2="665.9546"/><polygon fill="#2196F3" points="914.0625,655.5379,918.2292,665.9546,922.3958,655.5379,918.2292,659.7046" style="stroke:#2196F3;stroke-width:1.0416666666666667;"/><line style="stroke:#2196F3;stroke-width:3.125;" x1="1204.6875" x2="1204.6875" y1="645.1213" y2="665.9546"/><polygon fill="#2196F3" points="1200.5208,655.5379,1204.6875,665.9546,1208.8542,655.5379,1204.6875,659.7046" style="stroke:#2196F3;stroke-width:1.0416666666666667;"/><line style="stroke:#2196F3;stroke-width:3.125;" x1="631.7708" x2="631.7708" y1="722.3429" y2="743.1763"/><polygon fill="#2196F3" points="627.6042,732.7596,631.7708,743.1763,635.9375,732.7596,631.7708,736.9263" style="stroke:#2196F3;stroke-width:1.0416666666666667;"/><line style="stroke:#2196F3;stroke-width:3.125;" x1="918.2292" x2="918.2292" y1="722.3429" y2="743.1763"/><polygon fill="#2196F3" points="914.0625,732.7596,918.2292,743.1763,922.3958,732.7596,918.2292,736.9263" style="stroke:#2196F3;stroke-width:1.0416666666666667;"/><line style="stroke:#2196F3;stroke-width:3.125;" x1="1204.6875" x2="1204.6875" y1="722.3429" y2="743.1763"/><polygon fill="#2196F3" points="1200.5208,732.7596,1204.6875,743.1763,1208.8542,732.7596,1204.6875,736.9263" style="stroke:#2196F3;stroke-width:1.0416666666666667;"/><line style="stroke:#2196F3;stroke-width:3.125;" x1="918.2292" x2="918.2292" y1="587.1704" y2="643.5588"/><polygon fill="#2196F3" points="914.0625,633.1421,918.2292,643.5588,922.3958,633.1421,918.2292,637.3088" style="stroke:#2196F3;stroke-width:1.0416666666666667;"/><text fill="#222222" font-family="&quot;Verdana&quot;" font-size="12.5" lengthAdjust="spacing" textLength="537.5" x="932.8125" y="612.2762">Based on the booking sequence, Service, employee and availability order will be changed</text><line style="stroke:#2196F3;stroke-width:3.125;" x1="918.2292" x2="918.2292" y1="744.7388" y2="781.1971"/><polygon fill="#2196F3" points="914.0625,770.7804,918.2292,781.1971,922.3958,770.7804,918.2292,774.9471" style="stroke:#2196F3;stroke-width:1.0416666666666667;"/><line style="stroke:#2196F3;stroke-width:3.125;" x1="918.2292" x2="918.2292" y1="837.5854" y2="858.4188"/><polygon fill="#2196F3" points="914.0625,848.0021,918.2292,858.4188,922.3958,848.0021,918.2292,852.1688" style="stroke:#2196F3;stroke-width:1.0416666666666667;"/><line style="stroke:#2196F3;stroke-width:3.125;" x1="918.2292" x2="918.2292" y1="914.8071" y2="935.6405"/><polygon fill="#2196F3" points="914.0625,925.2238,918.2292,935.6405,922.3958,925.2238,918.2292,929.3905" style="stroke:#2196F3;stroke-width:1.0416666666666667;"/><line style="stroke:#2196F3;stroke-width:3.125;" x1="918.2292" x2="918.2292" y1="992.0288" y2="1012.8621"/><polygon fill="#2196F3" points="914.0625,1002.4455,918.2292,1012.8621,922.3958,1002.4455,918.2292,1006.6121" style="stroke:#2196F3;stroke-width:1.0416666666666667;"/><line style="stroke:#2196F3;stroke-width:3.125;" x1="733.5938" x2="134.8958" y1="497.4487" y2="497.4487"/><line style="stroke:#2196F3;stroke-width:3.125;" x1="134.8958" x2="134.8958" y1="497.4487" y2="530.7821"/><polygon fill="#2196F3" points="130.7292,520.3654,134.8958,530.7821,139.0625,520.3654,134.8958,524.5321" style="stroke:#2196F3;stroke-width:1.0416666666666667;"/><line style="stroke:#2196F3;stroke-width:3.125;" x1="758.5938" x2="918.2292" y1="497.4487" y2="497.4487"/><line style="stroke:#2196F3;stroke-width:3.125;" x1="918.2292" x2="918.2292" y1="497.4487" y2="530.7821"/><polygon fill="#2196F3" points="914.0625,520.3654,918.2292,530.7821,922.3958,520.3654,918.2292,524.5321" style="stroke:#2196F3;stroke-width:1.0416666666666667;"/><line style="stroke:#2196F3;stroke-width:3.125;" x1="373.4375" x2="373.4375" y1="497.4487" y2="530.7821"/><polygon fill="#2196F3" points="369.2708,520.3654,373.4375,530.7821,377.6042,520.3654,373.4375,524.5321" style="stroke:#2196F3;stroke-width:1.0416666666666667;"/><line style="stroke:#2196F3;stroke-width:3.125;" x1="134.8958" x2="134.8958" y1="664.3921" y2="1092.1672"/><line style="stroke:#2196F3;stroke-width:3.125;" x1="134.8958" x2="733.5938" y1="1092.1672" y2="1092.1672"/><polygon fill="#2196F3" points="723.1771,1088.0005,733.5938,1092.1672,723.1771,1096.3338,727.3438,1092.1672" style="stroke:#2196F3;stroke-width:1.0416666666666667;"/><line style="stroke:#2196F3;stroke-width:3.125;" x1="918.2292" x2="918.2292" y1="1069.2505" y2="1092.1672"/><line style="stroke:#2196F3;stroke-width:3.125;" x1="918.2292" x2="758.5938" y1="1092.1672" y2="1092.1672"/><polygon fill="#2196F3" points="769.0104,1088.0005,758.5938,1092.1672,769.0104,1096.3338,764.8438,1092.1672" style="stroke:#2196F3;stroke-width:1.0416666666666667;"/><line style="stroke:#2196F3;stroke-width:3.125;" x1="373.4375" x2="373.4375" y1="664.3921" y2="1092.1672"/><polygon fill="#2196F3" points="369.2708,1081.7505,373.4375,1092.1672,377.6042,1081.7505,373.4375,1085.9172" style="stroke:#2196F3;stroke-width:1.0416666666666667;"/><line style="stroke:#2196F3;stroke-width:3.125;" x1="746.0938" x2="746.0938" y1="438.9771" y2="484.9487"/><polygon fill="#2196F3" points="741.9271,474.5321,746.0938,484.9487,750.2604,474.5321,746.0938,478.6987" style="stroke:#2196F3;stroke-width:1.0416666666666667;"/><text fill="#222222" font-family="&quot;Verdana&quot;" font-size="12.5" lengthAdjust="spacing" textLength="572.9167" x="760.6771" y="462.5529">Object returned from useAppointmentBookingFlow is being passed in the following components</text><line style="stroke:#2196F3;stroke-width:3.125;" x1="1736.1979" x2="1736.1979" y1="332.312" y2="367.867"/><polygon fill="#2196F3" points="1732.0313,357.4504,1736.1979,367.867,1740.3646,357.4504,1736.1979,361.617" style="stroke:#2196F3;stroke-width:1.0416666666666667;"/><line style="stroke:#2196F3;stroke-width:3.125;" x1="1892.9688" x2="1892.9688" y1="715.8854" y2="752.3438"/><polygon fill="#2196F3" points="1888.8021,741.9271,1892.9688,752.3438,1897.1354,741.9271,1892.9688,746.0938" style="stroke:#2196F3;stroke-width:1.0416666666666667;"/><line style="stroke:#2196F3;stroke-width:3.125;" x1="746.0938" x2="746.0938" y1="234.257" y2="290.6453"/><polygon fill="#2196F3" points="741.9271,280.2287,746.0938,290.6453,750.2604,280.2287,746.0938,284.3953" style="stroke:#2196F3;stroke-width:1.0416666666666667;"/><line style="stroke:#2196F3;stroke-width:3.125;" x1="746.0938" x2="746.0938" y1="1104.6672" y2="1125.5005"/><polygon fill="#2196F3" points="741.9271,1115.0838,746.0938,1125.5005,750.2604,1115.0838,746.0938,1119.2505" style="stroke:#2196F3;stroke-width:1.0416666666666667;"/><line style="stroke:#2196F3;stroke-width:3.125;" x1="1736.1979" x2="1736.1979" y1="234.257" y2="275.9237"/><polygon fill="#2196F3" points="1732.0313,265.507,1736.1979,275.9237,1740.3646,265.507,1736.1979,269.6737" style="stroke:#2196F3;stroke-width:1.0416666666666667;"/><line style="stroke:#2196F3;stroke-width:3.125;" x1="837.7604" x2="1649.2188" y1="216.4795" y2="216.4795"/><polygon fill="#2196F3" points="1638.8021,212.3128,1649.2188,216.4795,1638.8021,220.6462,1642.9688,216.4795" style="stroke:#2196F3;stroke-width:1.0416666666666667;"/><line style="stroke:#2196F3;stroke-width:3.125;" x1="987.1094" x2="987.1094" y1="175.7161" y2="183.077"/><line style="stroke:#2196F3;stroke-width:3.125;" x1="987.1094" x2="746.0938" y1="183.077" y2="183.077"/><line style="stroke:#2196F3;stroke-width:3.125;" x1="746.0938" x2="746.0938" y1="183.077" y2="198.702"/><polygon fill="#2196F3" points="741.9271,188.2853,746.0938,198.702,750.2604,188.2853,746.0938,192.452" style="stroke:#2196F3;stroke-width:1.0416666666666667;"/><line style="stroke:#2196F3;stroke-width:3.125;" x1="1823.1771" x2="1892.9688" y1="216.4795" y2="216.4795"/><line style="stroke:#2196F3;stroke-width:3.125;" x1="1892.9688" x2="1892.9688" y1="216.4795" y2="659.4971"/><polygon fill="#2196F3" points="1888.8021,649.0804,1892.9688,659.4971,1897.1354,649.0804,1892.9688,653.2471" style="stroke:#2196F3;stroke-width:1.0416666666666667;"/><line style="stroke:#2196F3;stroke-width:3.125;" x1="746.0938" x2="987.1094" y1="1125.5005" y2="1125.5005"/><line style="stroke:#2196F3;stroke-width:3.125;" x1="901.6927" x2="901.6927" y1="1271.0897" y2="1291.923"/><polygon fill="#2196F3" points="897.526,1281.5063,901.6927,1291.923,905.8594,1281.5063,901.6927,1285.673" style="stroke:#2196F3;stroke-width:1.0416666666666667;"/><line style="stroke:#2196F3;stroke-width:3.125;" x1="1002.7344" x2="1002.7344" y1="1271.0897" y2="1291.923"/><polygon fill="#2196F3" points="998.5677,1281.5063,1002.7344,1291.923,1006.901,1281.5063,1002.7344,1285.673" style="stroke:#2196F3;stroke-width:1.0416666666666667;"/><line style="stroke:#2196F3;stroke-width:3.125;" x1="901.6927" x2="901.6927" y1="1193.868" y2="1214.7013"/><polygon fill="#2196F3" points="897.526,1204.2847,901.6927,1214.7013,905.8594,1204.2847,901.6927,1208.4513" style="stroke:#2196F3;stroke-width:1.0416666666666667;"/><line style="stroke:#2196F3;stroke-width:3.125;" x1="1002.7344" x2="1002.7344" y1="1193.868" y2="1214.7013"/><polygon fill="#2196F3" points="998.5677,1204.2847,1002.7344,1214.7013,1006.901,1204.2847,1002.7344,1208.4513" style="stroke:#2196F3;stroke-width:1.0416666666666667;"/><line style="stroke:#2196F3;stroke-width:3.125;" x1="915.2344" x2="702.7344" y1="1164.1113" y2="1164.1113"/><line style="stroke:#2196F3;stroke-width:3.125;" x1="702.7344" x2="702.7344" y1="1164.1113" y2="1192.3055"/><polygon fill="#2196F3" points="698.5677,1181.8888,702.7344,1192.3055,706.901,1181.8888,702.7344,1186.0555" style="stroke:#2196F3;stroke-width:1.0416666666666667;"/><line style="stroke:#2196F3;stroke-width:3.125;" x1="1058.9844" x2="1271.4844" y1="1164.1113" y2="1164.1113"/><line style="stroke:#2196F3;stroke-width:3.125;" x1="1271.4844" x2="1271.4844" y1="1164.1113" y2="1192.3055"/><polygon fill="#2196F3" points="1267.3177,1181.8888,1271.4844,1192.3055,1275.651,1181.8888,1271.4844,1186.0555" style="stroke:#2196F3;stroke-width:1.0416666666666667;"/><line style="stroke:#2196F3;stroke-width:3.125;" x1="987.1094" x2="987.1094" y1="1125.5005" y2="1146.3338"/><polygon fill="#2196F3" points="982.9427,1135.9172,987.1094,1146.3338,991.276,1135.9172,987.1094,1140.0838" style="stroke:#2196F3;stroke-width:1.0416666666666667;"/><!--MD5=[c136a5b4ecea7aaa850919224690087e]
@startuml Code Flow Diagram

!include https://raw.githubusercontent.com/bschwarz/puml-themes/master/themes/materia/puml-theme-materia.puml

title Code Flow Diagram

start

:AppointmentBookingFlowPage;

note right
Query: AppointmentBookingFlowPageQuery
Skipped when there's no location
end note

if(Any Location available?) then (yes)

:AppointmentBookingFlowMaster;

:useAppointmentBookingFlow;

-> Object returned from useAppointmentBookingFlow is being passed in the following components;

note right
Returns Data from the query stored in variable named value, an empty state and functions: save, loading and reset.
end note

switch()

case ()
  :Header;
  :Allow booking from Booking Portal;
case () 
  :Sequence;
  :Select Booking Sequence;
case ()
  :Steps;
    ->Based on the booking sequence, Service, employee and availability order will be changed;
  split
  :Service -> Employee -> Availability;
  split again
  :Service -> Availability -> Employee;
  split again
  :Availability -> Service -> Employee;

  end split
  ' split again
  :Resource Options;
  ' split again
  :Customer Options;
  ' split again
  :Cart Options;
  ' split again
  :Booking Confirmation;

endswitch

(no)elseif (No Location Available)
:Show Location Empty State;
end

else (error)
:Error;
end

endif

if(values changed?) then(yes)

split
:Save;

note left
Mutations in this step: UpsertAppointmentBookingFlowSettingMutation and UpsertServiceSettingMutation
end note

end

split again
:Reset;

note right
Values will be reset
end note
end
end split

else (no)
end


@enduml

@startuml Code Flow Diagram




skinparam backgroundColor transparent
skinparam useBetaStyle false







skinparam defaultFontName       "Verdana"
skinparam defaultFontSize       12
skinparam dpi                   100
skinparam shadowing             true
skinparam roundcorner           8
skinparam ParticipantPadding    40
skinparam BoxPadding            40
skinparam Padding               10
skinparam ArrowColor            #666
skinparam stereotype {
    CBackgroundColor #fff
    CBorderColor #cccccc
    ABackgroundColor #70bf73
    ABorderColor #3D8C40
    IBackgroundColor #B7161C
    IBorderColor #b7161c
    EBackgroundColor #ffad33
    EBorderColor #CC7A00
    NBackgroundColor #b052c0
    NBorderColor #7D1F8D
}
skinparam title {
	FontColor	                 #2196F3
	BorderColor	                 #cccccc
	FontSize	    	         20
	BorderRoundCorner            8
	BorderThickness 	         1
	BackgroundColor              #fff-#fff
}

skinparam legend {
	BackgroundColor #fff
	BorderColor #cccccc
	FontColor #222
}

skinparam swimlane {
	BorderColor #9C27B0
	BorderThickness 2
	TitleBackgroundColor  #fff-#fff
	TitleFontColor #2196F3
}


skinparam activity {
		FontColor #FFF
	BorderColor #2196F3
	BackgroundColor #4dabf5-#2196F3
	BarColor #4CAF50
	StartColor #9C27B0
	EndColor #9C27B0
	DiamondBackgroundColor #FFF-#fff
  	DiamondBorderColor #cccccc
	DiamondFontColor #222
}


skinparam participant {
		FontColor #FFF
	BorderColor #2196F3
	BackgroundColor #4dabf5-#2196F3
	ParticipantBorderThickness 2
}


skinparam actor {
		FontColor #FFF
	BorderColor #2196F3
	BackgroundColor #4dabf5-#2196F3
	FontColor #222
}


skinparam arrow {
	Thickness 3
	Color #2196F3
	FontColor #222
}


skinparam sequence {
	BorderColor #2196F3
	TitleFontColor #2196F3
	BackgroundColor transparent
	StartColor #2196F3
	EndColor #2196F3
	BoxBackgroundColor transparent
	BoxBorderColor #666
	BoxFontColor #222
	DelayFontColor #222
	LifeLineBorderColor #cccccc
	LifeLineBorderThickness 2
	LifeLineBackgroundColor #fff
	GroupBorderColor #666
	GroupFontColor #222
	GroupHeaderFontColor #FFF
	GroupBackgroundColor transparent
	GroupBodyBackgroundColor transparent
	GroupHeaderBackgroundColor transparent
	DividerBackgroundColor #FFF-#fff
    DividerBorderColor #666
    DividerBorderThickness 2
    DividerFontColor #222
	ReferenceBackgroundColor transparent
	ReferenceBorderColor #666
	ReferenceFontColor #222
	ReferenceHeaderFontColor #9C27B0
	StereotypeFontColor #FFF
}


skinparam partition {
	BorderColor #2196F3
	FontColor #2196F3
	BackgroundColor transparent
}


skinparam collections {
		FontColor #FFF
	BorderColor #2196F3
	BackgroundColor #4dabf5-#2196F3
}


skinparam control {
		FontColor #FFF
	BorderColor #2196F3
	BackgroundColor #4dabf5-#2196F3
	FontColor #222
}


skinparam entity {
		FontColor #FFF
	BorderColor #2196F3
	BackgroundColor #4dabf5-#2196F3
	FontColor #222
}


skinparam boundary {
		FontColor #FFF
	BorderColor #2196F3
	BackgroundColor #4dabf5-#2196F3
	FontColor #222
}


skinparam agent {
	BackgroundColor #orange
	BorderColor #999999
	FontColor #333333
}


skinparam note {
	BorderThickness 1
	BackgroundColor #b052c0-#9C27B0
	BorderColor #9C27B0
	FontColor #FFF
}


skinparam artifact {
	BackgroundColor #FFF-#fff
	BorderColor #666
	FontColor #666
}


skinparam component {
		FontColor #FFF
	BorderColor #2196F3
	BackgroundColor #4dabf5-#2196F3
}


skinparam interface {
	BackgroundColor  #B7161C
	BorderColor  #e51c23
	FontColor #222
}


skinparam storage {
	BackgroundColor #ffad33-#ff9800
  	BorderColor #ff9800
	FontColor #FFF
}


skinparam node {
	BackgroundColor #fff-#fff
	BorderColor #222
	FontColor #222
}


skinparam cloud {
	BackgroundColor transparent
	BorderColor #F2FCFE
	FontColor #222
}


skinparam database {
		FontColor #FFF
	BorderColor #2196F3
	BackgroundColor #4dabf5-#2196F3
	FontColor #222
}


skinparam class {
		FontColor #FFF
	BorderColor #2196F3
	BackgroundColor #4dabf5-#2196F3
	HeaderBackgroundColor #2196F3-#1a78c2
	StereotypeFontColor #222
	BorderThickness 1
	AttributeFontColor #fff
	AttributeFontSize 11
}


skinparam object {
		FontColor #FFF
	BorderColor #2196F3
	BackgroundColor #4dabf5-#2196F3
	StereotypeFontColor #222
	BorderThickness 1
	AttributeFontColor #222
	AttributeFontSize 11
}


skinparam usecase {
		FontColor #FFF
	BorderColor #2196F3
	BackgroundColor #4dabf5-#2196F3
	BorderThickness 2
	StereotypeFontColor #2196F3
}


skinparam rectangle {
	FontColor #2196F3
	BackgroundColor #fff-#fff
	BorderThickness 2
	StereotypeFontColor #2196F3
}


skinparam package {
		FontColor #FFF
	BorderColor #2196F3
	BackgroundColor #4dabf5-#2196F3
	BackgroundColor #fff-#fff
	BorderThickness 2
}


skinparam folder {
	BackgroundColor #FFF-#fff
  	BorderColor #ff9800
	FontColor #ff9800
	BorderThickness 2
}


skinparam frame {
	BackgroundColor #FFF-#fff
  	BorderColor #9C27B0
	FontColor #9C27B0
	BorderThickness 2
}


skinparam state {
		FontColor #FFF
	BorderColor #2196F3
	BackgroundColor #4dabf5-#2196F3
	BorderColor #1a78c2
	StartColor #9C27B0
	EndColor #9C27B0
	AttributeFontColor #222
	AttributeFontSize 11
}


skinparam queue {
		FontColor #FFF
	BorderColor #2196F3
	BackgroundColor #4dabf5-#2196F3
}


skinparam card {
	BackgroundColor #b052c0-#9C27B0
	BorderColor #9C27B0
	FontColor #FFF
}


skinparam file {
	BackgroundColor #fff-#fff
	BorderColor #666
	FontColor #666

}


skinparam stack {
		FontColor #FFF
	BorderColor #2196F3
	BackgroundColor #4dabf5-#2196F3
}

title Code Flow Diagram

start

:AppointmentBookingFlowPage;

note right
Query: AppointmentBookingFlowPageQuery
Skipped when there's no location
end note

if(Any Location available?) then (yes)

:AppointmentBookingFlowMaster;

:useAppointmentBookingFlow;

-> Object returned from useAppointmentBookingFlow is being passed in the following components;

note right
Returns Data from the query stored in variable named value, an empty state and functions: save, loading and reset.
end note

switch()

case ()
  :Header;
  :Allow booking from Booking Portal;
case () 
  :Sequence;
  :Select Booking Sequence;
case ()
  :Steps;
    ->Based on the booking sequence, Service, employee and availability order will be changed;
  split
  :Service -> Employee -> Availability;
  split again
  :Service -> Availability -> Employee;
  split again
  :Availability -> Service -> Employee;

  end split
  :Resource Options;
  :Customer Options;
  :Cart Options;
  :Booking Confirmation;

endswitch

(no)elseif (No Location Available)
:Show Location Empty State;
end

else (error)
:Error;
end

endif

if(values changed?) then(yes)

split
:Save;

note left
Mutations in this step: UpsertAppointmentBookingFlowSettingMutation and UpsertServiceSettingMutation
end note

end

split again
:Reset;

note right
Values will be reset
end note
end
end split

else (no)
end


@enduml

PlantUML version 1.2022.7(Mon Aug 22 22:31:30 IST 2022)
(GPL source distribution)
Java Runtime: Java(TM) SE Runtime Environment
JVM: Java HotSpot(TM) 64-Bit Server VM
Default Encoding: UTF-8
Language: en
Country: IN
--></g></svg>