<?xml version="1.0" encoding="UTF-8" standalone="no"?><svg xmlns="http://www.w3.org/2000/svg" xmlns:xlink="http://www.w3.org/1999/xlink" contentStyleType="text/css" height="1407.2917px" preserveAspectRatio="none" style="width:1934px;height:1407px;background:#00000000;" version="1.1" viewBox="0 0 1934 1407" width="1934.375px" zoomAndPan="magnify"><defs><linearGradient id="g3291d1qbx68j0" x1="50%" x2="50%" y1="0%" y2="100%"><stop offset="0%" stop-color="#FFFFFF"/><stop offset="100%" stop-color="#FFFFFF"/></linearGradient><filter height="300%" id="f3291d1qbx68j" width="300%" x="-1" y="-1"><feGaussianBlur result="blurOut" stdDeviation="2.0833333333333335"/><feColorMatrix in="blurOut" result="blurOut2" type="matrix" values="0 0 0 0 0 0 0 0 0 0 0 0 0 0 0 0 0 0 .4 0"/><feOffset dx="4.166666666666667" dy="4.166666666666667" in="blurOut2" result="blurOut3"/><feBlend in="SourceGraphic" in2="blurOut3" mode="normal"/></filter><linearGradient id="g3291d1qbx68j1" x1="50%" x2="50%" y1="0%" y2="100%"><stop offset="0%" stop-color="#4DABF5"/><stop offset="100%" stop-color="#2196F3"/></linearGradient><linearGradient id="g3291d1qbx68j2" x1="50%" x2="50%" y1="0%" y2="100%"><stop offset="0%" stop-color="#B052C0"/><stop offset="100%" stop-color="#9C27B0"/></linearGradient></defs><g><rect fill="url(#g3291d1qbx68j0)" height="55.7861" id="_title" rx="4.1667" ry="4.1667" style="stroke:#CCCCCC;stroke-width:1.0416666666666667;" width="305.2083" x="813.151" y="15.625"/><text fill="#2196F3" font-family="&quot;Verdana&quot;" font-size="20.8333" font-weight="bold" lengthAdjust="spacing" textLength="273.9583" x="828.776" y="51.3916">Basic Code Flow Diagram</text><ellipse cx="969.401" cy="88.0778" fill="#9C27B0" filter="url(#f3291d1qbx68j)" rx="10.4167" ry="10.4167" style="stroke:#222222;stroke-width:1.0416666666666667;"/><rect fill="url(#g3291d1qbx68j1)" filter="url(#f3291d1qbx68j)" height="56.3883" rx="4.1667" ry="4.1667" style="stroke:#2196F3;stroke-width:0.5208333333333334;" width="346.875" x="795.9635" y="119.3278"/><text fill="#FFFFFF" font-family="&quot;Verdana&quot;" font-size="12.5" lengthAdjust="spacing" textLength="305.2083" x="816.7969" y="152.2461">Hook is Registed for AppointmentBookingFlowPage</text><path d="M1100.651,194.397 L1100.651,220.577 L1079.8177,224.7437 L1100.651,228.9103 L1100.651,255.0903 A0,0 0 0 0 1100.651,255.0903 L1401.6927,255.0903 A0,0 0 0 0 1401.6927,255.0903 L1401.6927,204.8136 L1391.276,194.397 L1100.651,194.397 A0,0 0 0 0 1100.651,194.397 " fill="url(#g3291d1qbx68j2)" filter="url(#f3291d1qbx68j)" style="stroke:#181818;stroke-width:1.0416666666666667;"/><path d="M1391.276,194.397 L1391.276,204.8136 L1401.6927,204.8136 L1391.276,194.397 " fill="url(#g3291d1qbx68j2)" style="stroke:#181818;stroke-width:1.0416666666666667;"/><text fill="#FFFFFF" font-family="&quot;Verdana&quot;" font-size="12.5" lengthAdjust="spacing" textLength="258.3333" x="1117.3177" y="222.1069">Query: AppointmentBookingFlowPageQuery</text><text fill="#FFFFFF" font-family="&quot;Verdana&quot;" font-size="12.5" lengthAdjust="spacing" textLength="197.9167" x="1117.3177" y="236.8286">Skipped when there's no location</text><rect fill="url(#g3291d1qbx68j1)" filter="url(#f3291d1qbx68j)" height="56.3883" rx="4.1667" ry="4.1667" style="stroke:#2196F3;stroke-width:0.5208333333333334;" width="220.8333" x="858.9844" y="196.5495"/><text fill="#FFFFFF" font-family="&quot;Verdana&quot;" font-size="12.5" lengthAdjust="spacing" textLength="179.1667" x="879.8177" y="229.4678">AppointmentBookingFlowPage</text><polygon fill="url(#g3291d1qbx68j0)" filter="url(#f3291d1qbx68j)" points="666.9271,275.9237,825.2604,275.9237,837.7604,293.7012,825.2604,311.4787,666.9271,311.4787,654.4271,293.7012,666.9271,275.9237" style="stroke:#CCCCCC;stroke-width:0.5208333333333334;"/><text fill="#222222" font-family="&quot;Verdana&quot;" font-size="12.5" lengthAdjust="spacing" textLength="19.7917" x="760.6771" y="333.9803">yes</text><text fill="#222222" font-family="&quot;Verdana&quot;" font-size="12.5" lengthAdjust="spacing" textLength="137.5" x="677.3438" y="298.4253">Any Location available?</text><rect fill="url(#g3291d1qbx68j1)" filter="url(#f3291d1qbx68j)" height="56.3883" rx="4.1667" ry="4.1667" style="stroke:#2196F3;stroke-width:0.5208333333333334;" width="232.2917" x="629.9479" y="367.867"/><text fill="#FFFFFF" font-family="&quot;Verdana&quot;" font-size="12.5" lengthAdjust="spacing" textLength="190.625" x="650.7813" y="400.7853">AppointmentBookingFlowMaster</text><path d="M873.1771,465.0187 L873.1771,483.8379 L852.3438,488.0046 L873.1771,492.1712 L873.1771,510.9904 A0,0 0 0 0 873.1771,510.9904 L1613.8021,510.9904 A0,0 0 0 0 1613.8021,510.9904 L1613.8021,475.4354 L1603.3854,465.0187 L873.1771,465.0187 A0,0 0 0 0 873.1771,465.0187 " fill="url(#g3291d1qbx68j2)" filter="url(#f3291d1qbx68j)" style="stroke:#181818;stroke-width:1.0416666666666667;"/><path d="M1603.3854,465.0187 L1603.3854,475.4354 L1613.8021,475.4354 L1603.3854,465.0187 " fill="url(#g3291d1qbx68j2)" style="stroke:#181818;stroke-width:1.0416666666666667;"/><text fill="#FFFFFF" font-family="&quot;Verdana&quot;" font-size="12.5" lengthAdjust="spacing" textLength="697.9167" x="889.8438" y="492.7287">Returns Data from the query stored in variable named value, an empty state and functions: save, loading and reset.</text><rect fill="url(#g3291d1qbx68j1)" filter="url(#f3291d1qbx68j)" height="56.3883" rx="4.1667" ry="4.1667" style="stroke:#2196F3;stroke-width:0.5208333333333334;" width="212.5" x="639.8438" y="459.8104"/><text fill="#FFFFFF" font-family="&quot;Verdana&quot;" font-size="12.5" lengthAdjust="spacing" textLength="170.8333" x="660.6771" y="492.7287">useAppointmentBookingFlow</text><polygon fill="url(#g3291d1qbx68j0)" filter="url(#f3291d1qbx68j)" points="746.0938,562.1704,746.0938,562.1704,758.5938,574.6704,746.0938,587.1704,746.0938,587.1704,733.5938,574.6704,746.0938,562.1704" style="stroke:#CCCCCC;stroke-width:0.5208333333333334;"/><rect fill="url(#g3291d1qbx68j1)" filter="url(#f3291d1qbx68j)" height="56.3883" rx="4.1667" ry="4.1667" style="stroke:#2196F3;stroke-width:0.5208333333333334;" width="86.4583" x="91.6667" y="608.0037"/><text fill="#FFFFFF" font-family="&quot;Verdana&quot;" font-size="12.5" lengthAdjust="spacing" textLength="44.7917" x="112.5" y="640.922">Header</text><rect fill="url(#g3291d1qbx68j1)" filter="url(#f3291d1qbx68j)" height="56.3883" rx="4.1667" ry="4.1667" style="stroke:#2196F3;stroke-width:0.5208333333333334;" width="246.875" x="11.4583" y="685.2254"/><text fill="#FFFFFF" font-family="&quot;Verdana&quot;" font-size="12.5" lengthAdjust="spacing" textLength="205.2083" x="32.2917" y="718.1437">Allow booking from Booking Portal</text><rect fill="url(#g3291d1qbx68j1)" filter="url(#f3291d1qbx68j)" height="56.3883" rx="4.1667" ry="4.1667" style="stroke:#2196F3;stroke-width:0.5208333333333334;" width="98.9583" x="323.9583" y="608.0037"/><text fill="#FFFFFF" font-family="&quot;Verdana&quot;" font-size="12.5" lengthAdjust="spacing" textLength="57.2917" x="344.7917" y="640.922">Sequence</text><rect fill="url(#g3291d1qbx68j1)" filter="url(#f3291d1qbx68j)" height="56.3883" rx="4.1667" ry="4.1667" style="stroke:#2196F3;stroke-width:0.5208333333333334;" width="188.5417" x="279.1667" y="685.2254"/><text fill="#FFFFFF" font-family="&quot;Verdana&quot;" font-size="12.5" lengthAdjust="spacing" textLength="146.875" x="300" y="718.1437">Select Booking Sequence</text><rect fill="url(#g3291d1qbx68j1)" filter="url(#f3291d1qbx68j)" height="56.3883" rx="4.1667" ry="4.1667" style="stroke:#2196F3;stroke-width:0.5208333333333334;" width="73.9583" x="881.25" y="608.0037"/><text fill="#FFFFFF" font-family="&quot;Verdana&quot;" font-size="12.5" lengthAdjust="spacing" textLength="32.2917" x="902.0833" y="640.922">Steps</text><line style="stroke:#2196F3;stroke-width:1.5625;" x1="631.7708" x2="1204.6875" y1="720.7804" y2="720.7804"/><rect fill="url(#g3291d1qbx68j1)" filter="url(#f3291d1qbx68j)" height="56.3883" rx="4.1667" ry="4.1667" style="stroke:#2196F3;stroke-width:0.5208333333333334;" width="257.2917" x="503.125" y="743.1763"/><text fill="#FFFFFF" font-family="&quot;Verdana&quot;" font-size="12.5" lengthAdjust="spacing" textLength="215.625" x="523.9583" y="776.0946">Service -&gt; Employee -&gt; Availability</text><rect fill="url(#g3291d1qbx68j1)" filter="url(#f3291d1qbx68j)" height="56.3883" rx="4.1667" ry="4.1667" style="stroke:#2196F3;stroke-width:0.5208333333333334;" width="257.2917" x="789.5833" y="743.1763"/><text fill="#FFFFFF" font-family="&quot;Verdana&quot;" font-size="12.5" lengthAdjust="spacing" textLength="215.625" x="810.4167" y="776.0946">Service -&gt; Availability -&gt; Employee</text><rect fill="url(#g3291d1qbx68j1)" filter="url(#f3291d1qbx68j)" height="56.3883" rx="4.1667" ry="4.1667" style="stroke:#2196F3;stroke-width:0.5208333333333334;" width="257.2917" x="1076.0417" y="743.1763"/><text fill="#FFFFFF" font-family="&quot;Verdana&quot;" font-size="12.5" lengthAdjust="spacing" textLength="215.625" x="1096.875" y="776.0946">Availability -&gt; Service -&gt; Employee</text><line style="stroke:#2196F3;stroke-width:1.5625;" x1="631.7708" x2="1204.6875" y1="820.3979" y2="820.3979"/><rect fill="url(#g3291d1qbx68j1)" filter="url(#f3291d1qbx68j)" height="56.3883" rx="4.1667" ry="4.1667" style="stroke:#2196F3;stroke-width:0.5208333333333334;" width="146.875" x="844.7917" y="858.4188"/><text fill="#FFFFFF" font-family="&quot;Verdana&quot;" font-size="12.5" lengthAdjust="spacing" textLength="105.2083" x="865.625" y="891.3371">Resource Options</text><rect fill="url(#g3291d1qbx68j1)" filter="url(#f3291d1qbx68j)" height="56.3883" rx="4.1667" ry="4.1667" style="stroke:#2196F3;stroke-width:0.5208333333333334;" width="148.9583" x="843.75" y="935.6405"/><text fill="#FFFFFF" font-family="&quot;Verdana&quot;" font-size="12.5" lengthAdjust="spacing" textLength="107.2917" x="864.5833" y="968.5588">Customer Options</text><rect fill="url(#g3291d1qbx68j1)" filter="url(#f3291d1qbx68j)" height="56.3883" rx="4.1667" ry="4.1667" style="stroke:#2196F3;stroke-width:0.5208333333333334;" width="116.6667" x="859.8958" y="1012.8621"/><text fill="#FFFFFF" font-family="&quot;Verdana&quot;" font-size="12.5" lengthAdjust="spacing" textLength="75" x="880.7292" y="1045.7804">Cart Options</text><rect fill="url(#g3291d1qbx68j1)" filter="url(#f3291d1qbx68j)" height="56.3883" rx="4.1667" ry="4.1667" style="stroke:#2196F3;stroke-width:0.5208333333333334;" width="168.75" x="833.8542" y="1090.0838"/><text fill="#FFFFFF" font-family="&quot;Verdana&quot;" font-size="12.5" lengthAdjust="spacing" textLength="127.0833" x="854.6875" y="1123.0021">Booking Confirmation</text><polygon fill="url(#g3291d1qbx68j0)" filter="url(#f3291d1qbx68j)" points="746.0938,1156.8888,746.0938,1156.8888,758.5938,1169.3888,746.0938,1181.8888,746.0938,1181.8888,733.5938,1169.3888,746.0938,1156.8888" style="stroke:#CCCCCC;stroke-width:0.5208333333333334;"/><polygon fill="url(#g3291d1qbx68j0)" filter="url(#f3291d1qbx68j)" points="1661.1979,275.9237,1787.2396,275.9237,1799.7396,293.7012,1787.2396,311.4787,1661.1979,311.4787,1648.6979,293.7012,1661.1979,275.9237" style="stroke:#CCCCCC;stroke-width:0.5208333333333334;"/><text fill="#222222" font-family="&quot;Verdana&quot;" font-size="12.5" lengthAdjust="spacing" textLength="105.2083" x="1671.6146" y="298.4253">No active location</text><text fill="#222222" font-family="&quot;Verdana&quot;" font-size="12.5" lengthAdjust="spacing" textLength="30.2083" x="1810.1563" y="280.6478">error</text><rect fill="url(#g3291d1qbx68j1)" filter="url(#f3291d1qbx68j)" height="56.3883" rx="4.1667" ry="4.1667" style="stroke:#2196F3;stroke-width:0.5208333333333334;" width="200" x="1624.2188" y="353.1453"/><text fill="#FFFFFF" font-family="&quot;Verdana&quot;" font-size="12.5" lengthAdjust="spacing" textLength="158.3333" x="1645.0521" y="386.0636">Show Location Empty State</text><ellipse cx="1724.2188" cy="455.5054" fill="none" filter="url(#f3291d1qbx68j)" rx="10.4167" ry="10.4167" style="stroke:#9C27B0;stroke-width:1.5625;"/><line style="stroke:#9C27B0;stroke-width:2.604166666666667;" x1="1717.7738" x2="1730.6637" y1="449.0604" y2="461.9504"/><line style="stroke:#9C27B0;stroke-width:2.604166666666667;" x1="1730.6637" x2="1717.7738" y1="449.0604" y2="461.9504"/><rect fill="url(#g3291d1qbx68j1)" filter="url(#f3291d1qbx68j)" height="56.3883" rx="4.1667" ry="4.1667" style="stroke:#2196F3;stroke-width:0.5208333333333334;" width="71.875" x="1845.0521" y="736.7188"/><text fill="#FFFFFF" font-family="&quot;Verdana&quot;" font-size="12.5" lengthAdjust="spacing" textLength="30.2083" x="1865.8854" y="769.637">Error</text><ellipse cx="1880.9896" cy="839.9821" fill="none" filter="url(#f3291d1qbx68j)" rx="10.4167" ry="10.4167" style="stroke:#9C27B0;stroke-width:1.5625;"/><line style="stroke:#9C27B0;stroke-width:2.604166666666667;" x1="1874.5446" x2="1887.4346" y1="833.5371" y2="846.4271"/><line style="stroke:#9C27B0;stroke-width:2.604166666666667;" x1="1887.4346" x2="1874.5446" y1="833.5371" y2="846.4271"/><polygon fill="url(#g3291d1qbx68j0)" filter="url(#f3291d1qbx68j)" points="910.026,1223.5555,1028.776,1223.5555,1041.276,1241.333,1028.776,1259.1105,910.026,1259.1105,897.526,1241.333,910.026,1223.5555" style="stroke:#CCCCCC;stroke-width:0.5208333333333334;"/><text fill="#222222" font-family="&quot;Verdana&quot;" font-size="12.5" lengthAdjust="spacing" textLength="97.9167" x="920.4427" y="1246.0571">values changed?</text><text fill="#222222" font-family="&quot;Verdana&quot;" font-size="12.5" lengthAdjust="spacing" textLength="19.7917" x="867.3177" y="1228.2796">yes</text><text fill="#222222" font-family="&quot;Verdana&quot;" font-size="12.5" lengthAdjust="spacing" textLength="14.5833" x="1051.6927" y="1228.2796">no</text><line style="stroke:#2196F3;stroke-width:1.5625;" x1="685.026" x2="985.026" y1="1269.5272" y2="1269.5272"/><path d="M167.3177,1297.1313 L167.3177,1343.103 A0,0 0 0 0 167.3177,1343.103 L828.776,1343.103 A0,0 0 0 0 828.776,1343.103 L828.776,1324.2839 L849.6094,1320.1172 L828.776,1315.9505 L828.776,1307.548 L818.3594,1297.1313 L167.3177,1297.1313 A0,0 0 0 0 167.3177,1297.1313 " fill="url(#g3291d1qbx68j2)" filter="url(#f3291d1qbx68j)" style="stroke:#181818;stroke-width:1.0416666666666667;"/><path d="M818.3594,1297.1313 L818.3594,1307.548 L828.776,1307.548 L818.3594,1297.1313 " fill="url(#g3291d1qbx68j2)" style="stroke:#181818;stroke-width:1.0416666666666667;"/><text fill="#FFFFFF" font-family="&quot;Verdana&quot;" font-size="12.5" lengthAdjust="spacing" textLength="618.75" x="183.9844" y="1324.8413">Mutations in this step: UpsertAppointmentBookingFlowSettingMutation and UpsertServiceSettingMutation</text><rect fill="url(#g3291d1qbx68j1)" filter="url(#f3291d1qbx68j)" height="56.3883" rx="4.1667" ry="4.1667" style="stroke:#2196F3;stroke-width:0.5208333333333334;" width="68.75" x="849.6094" y="1291.923"/><text fill="#FFFFFF" font-family="&quot;Verdana&quot;" font-size="12.5" lengthAdjust="spacing" textLength="27.0833" x="870.4427" y="1324.8413">Save</text><ellipse cx="883.9844" cy="1379.5614" fill="none" filter="url(#f3291d1qbx68j)" rx="10.4167" ry="10.4167" style="stroke:#9C27B0;stroke-width:1.5625;"/><line style="stroke:#9C27B0;stroke-width:2.604166666666667;" x1="877.5394" x2="890.4294" y1="1373.1164" y2="1386.0063"/><line style="stroke:#9C27B0;stroke-width:2.604166666666667;" x1="890.4294" x2="877.5394" y1="1373.1164" y2="1386.0063"/><path d="M1043.3594,1297.1313 L1043.3594,1315.9505 L1022.526,1320.1172 L1043.3594,1324.2839 L1043.3594,1343.103 A0,0 0 0 0 1043.3594,1343.103 L1202.7344,1343.103 A0,0 0 0 0 1202.7344,1343.103 L1202.7344,1307.548 L1192.3177,1297.1313 L1043.3594,1297.1313 A0,0 0 0 0 1043.3594,1297.1313 " fill="url(#g3291d1qbx68j2)" filter="url(#f3291d1qbx68j)" style="stroke:#181818;stroke-width:1.0416666666666667;"/><path d="M1192.3177,1297.1313 L1192.3177,1307.548 L1202.7344,1307.548 L1192.3177,1297.1313 " fill="url(#g3291d1qbx68j2)" style="stroke:#181818;stroke-width:1.0416666666666667;"/><text fill="#FFFFFF" font-family="&quot;Verdana&quot;" font-size="12.5" lengthAdjust="spacing" textLength="116.6667" x="1060.026" y="1324.8413">Values will be reset</text><rect fill="url(#g3291d1qbx68j1)" filter="url(#f3291d1qbx68j)" height="56.3883" rx="4.1667" ry="4.1667" style="stroke:#2196F3;stroke-width:0.5208333333333334;" width="75" x="947.526" y="1291.923"/><text fill="#FFFFFF" font-family="&quot;Verdana&quot;" font-size="12.5" lengthAdjust="spacing" textLength="33.3333" x="968.3594" y="1324.8413">Reset</text><ellipse cx="985.026" cy="1379.5614" fill="none" filter="url(#f3291d1qbx68j)" rx="10.4167" ry="10.4167" style="stroke:#9C27B0;stroke-width:1.5625;"/><line style="stroke:#9C27B0;stroke-width:2.604166666666667;" x1="978.5811" x2="991.471" y1="1373.1164" y2="1386.0063"/><line style="stroke:#9C27B0;stroke-width:2.604166666666667;" x1="991.471" x2="978.5811" y1="1373.1164" y2="1386.0063"/><ellipse cx="1253.776" cy="1279.9438" fill="none" filter="url(#f3291d1qbx68j)" rx="10.4167" ry="10.4167" style="stroke:#9C27B0;stroke-width:1.5625;"/><line style="stroke:#9C27B0;stroke-width:2.604166666666667;" x1="1247.3311" x2="1260.221" y1="1273.4989" y2="1286.3888"/><line style="stroke:#9C27B0;stroke-width:2.604166666666667;" x1="1260.221" x2="1247.3311" y1="1273.4989" y2="1286.3888"/><line style="stroke:#2196F3;stroke-width:3.125;" x1="969.401" x2="969.401" y1="98.4945" y2="119.3278"/><polygon fill="#2196F3" points="965.2344,108.9111,969.401,119.3278,973.5677,108.9111,969.401,113.0778" style="stroke:#2196F3;stroke-width:1.0416666666666667;"/><line style="stroke:#2196F3;stroke-width:3.125;" x1="969.401" x2="969.401" y1="175.7161" y2="196.5495"/><polygon fill="#2196F3" points="965.2344,186.1328,969.401,196.5495,973.5677,186.1328,969.401,190.2995" style="stroke:#2196F3;stroke-width:1.0416666666666667;"/><line style="stroke:#2196F3;stroke-width:3.125;" x1="746.0938" x2="746.0938" y1="424.2554" y2="459.8104"/><polygon fill="#2196F3" points="741.9271,449.3937,746.0938,459.8104,750.2604,449.3937,746.0938,453.5604" style="stroke:#2196F3;stroke-width:1.0416666666666667;"/><line style="stroke:#2196F3;stroke-width:3.125;" x1="134.8958" x2="134.8958" y1="664.3921" y2="685.2254"/><polygon fill="#2196F3" points="130.7292,674.8088,134.8958,685.2254,139.0625,674.8088,134.8958,678.9754" style="stroke:#2196F3;stroke-width:1.0416666666666667;"/><line style="stroke:#2196F3;stroke-width:3.125;" x1="373.4375" x2="373.4375" y1="664.3921" y2="685.2254"/><polygon fill="#2196F3" points="369.2708,674.8088,373.4375,685.2254,377.6042,674.8088,373.4375,678.9754" style="stroke:#2196F3;stroke-width:1.0416666666666667;"/><line style="stroke:#2196F3;stroke-width:3.125;" x1="631.7708" x2="631.7708" y1="722.3429" y2="743.1763"/><polygon fill="#2196F3" points="627.6042,732.7596,631.7708,743.1763,635.9375,732.7596,631.7708,736.9263" style="stroke:#2196F3;stroke-width:1.0416666666666667;"/><line style="stroke:#2196F3;stroke-width:3.125;" x1="918.2292" x2="918.2292" y1="722.3429" y2="743.1763"/><polygon fill="#2196F3" points="914.0625,732.7596,918.2292,743.1763,922.3958,732.7596,918.2292,736.9263" style="stroke:#2196F3;stroke-width:1.0416666666666667;"/><line style="stroke:#2196F3;stroke-width:3.125;" x1="1204.6875" x2="1204.6875" y1="722.3429" y2="743.1763"/><polygon fill="#2196F3" points="1200.5208,732.7596,1204.6875,743.1763,1208.8542,732.7596,1204.6875,736.9263" style="stroke:#2196F3;stroke-width:1.0416666666666667;"/><line style="stroke:#2196F3;stroke-width:3.125;" x1="631.7708" x2="631.7708" y1="799.5646" y2="820.3979"/><polygon fill="#2196F3" points="627.6042,809.9813,631.7708,820.3979,635.9375,809.9813,631.7708,814.1479" style="stroke:#2196F3;stroke-width:1.0416666666666667;"/><line style="stroke:#2196F3;stroke-width:3.125;" x1="918.2292" x2="918.2292" y1="799.5646" y2="820.3979"/><polygon fill="#2196F3" points="914.0625,809.9813,918.2292,820.3979,922.3958,809.9813,918.2292,814.1479" style="stroke:#2196F3;stroke-width:1.0416666666666667;"/><line style="stroke:#2196F3;stroke-width:3.125;" x1="1204.6875" x2="1204.6875" y1="799.5646" y2="820.3979"/><polygon fill="#2196F3" points="1200.5208,809.9813,1204.6875,820.3979,1208.8542,809.9813,1204.6875,814.1479" style="stroke:#2196F3;stroke-width:1.0416666666666667;"/><line style="stroke:#2196F3;stroke-width:3.125;" x1="918.2292" x2="918.2292" y1="664.3921" y2="720.7804"/><polygon fill="#2196F3" points="914.0625,710.3638,918.2292,720.7804,922.3958,710.3638,918.2292,714.5304" style="stroke:#2196F3;stroke-width:1.0416666666666667;"/><text fill="#222222" font-family="&quot;Verdana&quot;" font-size="12.5" lengthAdjust="spacing" textLength="537.5" x="932.8125" y="689.4979">Based on the booking sequence, Service, employee and availability order will be changed</text><line style="stroke:#2196F3;stroke-width:3.125;" x1="918.2292" x2="918.2292" y1="821.9604" y2="858.4188"/><polygon fill="#2196F3" points="914.0625,848.0021,918.2292,858.4188,922.3958,848.0021,918.2292,852.1688" style="stroke:#2196F3;stroke-width:1.0416666666666667;"/><line style="stroke:#2196F3;stroke-width:3.125;" x1="918.2292" x2="918.2292" y1="914.8071" y2="935.6405"/><polygon fill="#2196F3" points="914.0625,925.2238,918.2292,935.6405,922.3958,925.2238,918.2292,929.3905" style="stroke:#2196F3;stroke-width:1.0416666666666667;"/><line style="stroke:#2196F3;stroke-width:3.125;" x1="918.2292" x2="918.2292" y1="992.0288" y2="1012.8621"/><polygon fill="#2196F3" points="914.0625,1002.4455,918.2292,1012.8621,922.3958,1002.4455,918.2292,1006.6121" style="stroke:#2196F3;stroke-width:1.0416666666666667;"/><line style="stroke:#2196F3;stroke-width:3.125;" x1="918.2292" x2="918.2292" y1="1069.2505" y2="1090.0838"/><polygon fill="#2196F3" points="914.0625,1079.6672,918.2292,1090.0838,922.3958,1079.6672,918.2292,1083.8338" style="stroke:#2196F3;stroke-width:1.0416666666666667;"/><line style="stroke:#2196F3;stroke-width:3.125;" x1="733.5938" x2="134.8958" y1="574.6704" y2="574.6704"/><line style="stroke:#2196F3;stroke-width:3.125;" x1="134.8958" x2="134.8958" y1="574.6704" y2="608.0037"/><polygon fill="#2196F3" points="130.7292,597.5871,134.8958,608.0037,139.0625,597.5871,134.8958,601.7537" style="stroke:#2196F3;stroke-width:1.0416666666666667;"/><line style="stroke:#2196F3;stroke-width:3.125;" x1="758.5938" x2="918.2292" y1="574.6704" y2="574.6704"/><line style="stroke:#2196F3;stroke-width:3.125;" x1="918.2292" x2="918.2292" y1="574.6704" y2="608.0037"/><polygon fill="#2196F3" points="914.0625,597.5871,918.2292,608.0037,922.3958,597.5871,918.2292,601.7537" style="stroke:#2196F3;stroke-width:1.0416666666666667;"/><line style="stroke:#2196F3;stroke-width:3.125;" x1="373.4375" x2="373.4375" y1="574.6704" y2="608.0037"/><polygon fill="#2196F3" points="369.2708,597.5871,373.4375,608.0037,377.6042,597.5871,373.4375,601.7537" style="stroke:#2196F3;stroke-width:1.0416666666666667;"/><line style="stroke:#2196F3;stroke-width:3.125;" x1="134.8958" x2="134.8958" y1="741.6138" y2="1169.3888"/><line style="stroke:#2196F3;stroke-width:3.125;" x1="134.8958" x2="733.5938" y1="1169.3888" y2="1169.3888"/><polygon fill="#2196F3" points="723.1771,1165.2222,733.5938,1169.3888,723.1771,1173.5555,727.3438,1169.3888" style="stroke:#2196F3;stroke-width:1.0416666666666667;"/><line style="stroke:#2196F3;stroke-width:3.125;" x1="918.2292" x2="918.2292" y1="1146.4722" y2="1169.3888"/><line style="stroke:#2196F3;stroke-width:3.125;" x1="918.2292" x2="758.5938" y1="1169.3888" y2="1169.3888"/><polygon fill="#2196F3" points="769.0104,1165.2222,758.5938,1169.3888,769.0104,1173.5555,764.8438,1169.3888" style="stroke:#2196F3;stroke-width:1.0416666666666667;"/><line style="stroke:#2196F3;stroke-width:3.125;" x1="373.4375" x2="373.4375" y1="741.6138" y2="1169.3888"/><polygon fill="#2196F3" points="369.2708,1158.9722,373.4375,1169.3888,377.6042,1158.9722,373.4375,1163.1388" style="stroke:#2196F3;stroke-width:1.0416666666666667;"/><line style="stroke:#2196F3;stroke-width:3.125;" x1="746.0938" x2="746.0938" y1="516.1987" y2="562.1704"/><polygon fill="#2196F3" points="741.9271,551.7537,746.0938,562.1704,750.2604,551.7537,746.0938,555.9204" style="stroke:#2196F3;stroke-width:1.0416666666666667;"/><text fill="#222222" font-family="&quot;Verdana&quot;" font-size="12.5" lengthAdjust="spacing" textLength="572.9167" x="760.6771" y="539.7746">Object returned from useAppointmentBookingFlow is being passed in the following components</text><line style="stroke:#2196F3;stroke-width:3.125;" x1="1724.2188" x2="1724.2188" y1="409.5337" y2="445.0887"/><polygon fill="#2196F3" points="1720.0521,434.672,1724.2188,445.0887,1728.3854,434.672,1724.2188,438.8387" style="stroke:#2196F3;stroke-width:1.0416666666666667;"/><line style="stroke:#2196F3;stroke-width:3.125;" x1="1880.9896" x2="1880.9896" y1="793.1071" y2="829.5654"/><polygon fill="#2196F3" points="1876.8229,819.1488,1880.9896,829.5654,1885.1563,819.1488,1880.9896,823.3154" style="stroke:#2196F3;stroke-width:1.0416666666666667;"/><line style="stroke:#2196F3;stroke-width:3.125;" x1="746.0938" x2="746.0938" y1="311.4787" y2="367.867"/><polygon fill="#2196F3" points="741.9271,357.4504,746.0938,367.867,750.2604,357.4504,746.0938,361.617" style="stroke:#2196F3;stroke-width:1.0416666666666667;"/><line style="stroke:#2196F3;stroke-width:3.125;" x1="746.0938" x2="746.0938" y1="1181.8888" y2="1202.7222"/><polygon fill="#2196F3" points="741.9271,1192.3055,746.0938,1202.7222,750.2604,1192.3055,746.0938,1196.4722" style="stroke:#2196F3;stroke-width:1.0416666666666667;"/><line style="stroke:#2196F3;stroke-width:3.125;" x1="1724.2188" x2="1724.2188" y1="311.4787" y2="353.1453"/><polygon fill="#2196F3" points="1720.0521,342.7287,1724.2188,353.1453,1728.3854,342.7287,1724.2188,346.8953" style="stroke:#2196F3;stroke-width:1.0416666666666667;"/><line style="stroke:#2196F3;stroke-width:3.125;" x1="837.7604" x2="1648.6979" y1="293.7012" y2="293.7012"/><polygon fill="#2196F3" points="1638.2813,289.5345,1648.6979,293.7012,1638.2813,297.8678,1642.4479,293.7012" style="stroke:#2196F3;stroke-width:1.0416666666666667;"/><line style="stroke:#2196F3;stroke-width:3.125;" x1="969.401" x2="969.401" y1="252.9378" y2="260.2987"/><line style="stroke:#2196F3;stroke-width:3.125;" x1="969.401" x2="746.0938" y1="260.2987" y2="260.2987"/><line style="stroke:#2196F3;stroke-width:3.125;" x1="746.0938" x2="746.0938" y1="260.2987" y2="275.9237"/><polygon fill="#2196F3" points="741.9271,265.507,746.0938,275.9237,750.2604,265.507,746.0938,269.6737" style="stroke:#2196F3;stroke-width:1.0416666666666667;"/><line style="stroke:#2196F3;stroke-width:3.125;" x1="1799.7396" x2="1880.9896" y1="293.7012" y2="293.7012"/><line style="stroke:#2196F3;stroke-width:3.125;" x1="1880.9896" x2="1880.9896" y1="293.7012" y2="736.7188"/><polygon fill="#2196F3" points="1876.8229,726.3021,1880.9896,736.7188,1885.1563,726.3021,1880.9896,730.4688" style="stroke:#2196F3;stroke-width:1.0416666666666667;"/><line style="stroke:#2196F3;stroke-width:3.125;" x1="746.0938" x2="969.401" y1="1202.7222" y2="1202.7222"/><line style="stroke:#2196F3;stroke-width:3.125;" x1="883.9844" x2="883.9844" y1="1348.3114" y2="1369.1447"/><polygon fill="#2196F3" points="879.8177,1358.728,883.9844,1369.1447,888.151,1358.728,883.9844,1362.8947" style="stroke:#2196F3;stroke-width:1.0416666666666667;"/><line style="stroke:#2196F3;stroke-width:3.125;" x1="985.026" x2="985.026" y1="1348.3114" y2="1369.1447"/><polygon fill="#2196F3" points="980.8594,1358.728,985.026,1369.1447,989.1927,1358.728,985.026,1362.8947" style="stroke:#2196F3;stroke-width:1.0416666666666667;"/><line style="stroke:#2196F3;stroke-width:3.125;" x1="883.9844" x2="883.9844" y1="1271.0897" y2="1291.923"/><polygon fill="#2196F3" points="879.8177,1281.5063,883.9844,1291.923,888.151,1281.5063,883.9844,1285.673" style="stroke:#2196F3;stroke-width:1.0416666666666667;"/><line style="stroke:#2196F3;stroke-width:3.125;" x1="985.026" x2="985.026" y1="1271.0897" y2="1291.923"/><polygon fill="#2196F3" points="980.8594,1281.5063,985.026,1291.923,989.1927,1281.5063,985.026,1285.673" style="stroke:#2196F3;stroke-width:1.0416666666666667;"/><line style="stroke:#2196F3;stroke-width:3.125;" x1="897.526" x2="685.026" y1="1241.333" y2="1241.333"/><line style="stroke:#2196F3;stroke-width:3.125;" x1="685.026" x2="685.026" y1="1241.333" y2="1269.5272"/><polygon fill="#2196F3" points="680.8594,1259.1105,685.026,1269.5272,689.1927,1259.1105,685.026,1263.2772" style="stroke:#2196F3;stroke-width:1.0416666666666667;"/><line style="stroke:#2196F3;stroke-width:3.125;" x1="1041.276" x2="1253.776" y1="1241.333" y2="1241.333"/><line style="stroke:#2196F3;stroke-width:3.125;" x1="1253.776" x2="1253.776" y1="1241.333" y2="1269.5272"/><polygon fill="#2196F3" points="1249.6094,1259.1105,1253.776,1269.5272,1257.9427,1259.1105,1253.776,1263.2772" style="stroke:#2196F3;stroke-width:1.0416666666666667;"/><line style="stroke:#2196F3;stroke-width:3.125;" x1="969.401" x2="969.401" y1="1202.7222" y2="1223.5555"/><polygon fill="#2196F3" points="965.2344,1213.1388,969.401,1223.5555,973.5677,1213.1388,969.401,1217.3055" style="stroke:#2196F3;stroke-width:1.0416666666666667;"/><!--MD5=[5bb76eef11f0ac42b5f8da28aeb8e0cf]
@startuml Code Flow Diagram

!include https://raw.githubusercontent.com/bschwarz/puml-themes/master/themes/materia/puml-theme-materia.puml

title Basic Code Flow Diagram

start

:Hook is Registed for AppointmentBookingFlowPage;

:AppointmentBookingFlowPage;

note right
Query: AppointmentBookingFlowPageQuery
Skipped when there's no location
end note

if(Any Location available?) then (yes)

:AppointmentBookingFlowMaster;

:useAppointmentBookingFlow;

-> Object returned from useAppointmentBookingFlow is being passed in the following components;

note right
Returns Data from the query stored in variable named value, an empty state and functions: save, loading and reset.
end note

switch()

case ()
  :Header;
  :Allow booking from Booking Portal;
case () 
  :Sequence;
  :Select Booking Sequence;
case ()
  :Steps;
    ->Based on the booking sequence, Service, employee and availability order will be changed;
  split
  :Service -> Employee -> Availability;
  split again
  :Service -> Availability -> Employee;
  split again
  :Availability -> Service -> Employee;

  end split
  ' split again
  :Resource Options;
  ' split again
  :Customer Options;
  ' split again
  :Cart Options;
  ' split again
  :Booking Confirmation;

endswitch

elseif (No active location)
:Show Location Empty State;
end

else (error)
:Error;
end

endif

if(values changed?) then(yes)

split
:Save;

note left
Mutations in this step: UpsertAppointmentBookingFlowSettingMutation and UpsertServiceSettingMutation
end note

end

split again
:Reset;

note right
Values will be reset
end note
end
end split

else (no)
end


@enduml

@startuml Code Flow Diagram




skinparam backgroundColor transparent
skinparam useBetaStyle false







skinparam defaultFontName       "Verdana"
skinparam defaultFontSize       12
skinparam dpi                   100
skinparam shadowing             true
skinparam roundcorner           8
skinparam ParticipantPadding    40
skinparam BoxPadding            40
skinparam Padding               10
skinparam ArrowColor            #666
skinparam stereotype {
    CBackgroundColor #fff
    CBorderColor #cccccc
    ABackgroundColor #70bf73
    ABorderColor #3D8C40
    IBackgroundColor #B7161C
    IBorderColor #b7161c
    EBackgroundColor #ffad33
    EBorderColor #CC7A00
    NBackgroundColor #b052c0
    NBorderColor #7D1F8D
}
skinparam title {
	FontColor	                 #2196F3
	BorderColor	                 #cccccc
	FontSize	    	         20
	BorderRoundCorner            8
	BorderThickness 	         1
	BackgroundColor              #fff-#fff
}

skinparam legend {
	BackgroundColor #fff
	BorderColor #cccccc
	FontColor #222
}

skinparam swimlane {
	BorderColor #9C27B0
	BorderThickness 2
	TitleBackgroundColor  #fff-#fff
	TitleFontColor #2196F3
}


skinparam activity {
		FontColor #FFF
	BorderColor #2196F3
	BackgroundColor #4dabf5-#2196F3
	BarColor #4CAF50
	StartColor #9C27B0
	EndColor #9C27B0
	DiamondBackgroundColor #FFF-#fff
  	DiamondBorderColor #cccccc
	DiamondFontColor #222
}


skinparam participant {
		FontColor #FFF
	BorderColor #2196F3
	BackgroundColor #4dabf5-#2196F3
	ParticipantBorderThickness 2
}


skinparam actor {
		FontColor #FFF
	BorderColor #2196F3
	BackgroundColor #4dabf5-#2196F3
	FontColor #222
}


skinparam arrow {
	Thickness 3
	Color #2196F3
	FontColor #222
}


skinparam sequence {
	BorderColor #2196F3
	TitleFontColor #2196F3
	BackgroundColor transparent
	StartColor #2196F3
	EndColor #2196F3
	BoxBackgroundColor transparent
	BoxBorderColor #666
	BoxFontColor #222
	DelayFontColor #222
	LifeLineBorderColor #cccccc
	LifeLineBorderThickness 2
	LifeLineBackgroundColor #fff
	GroupBorderColor #666
	GroupFontColor #222
	GroupHeaderFontColor #FFF
	GroupBackgroundColor transparent
	GroupBodyBackgroundColor transparent
	GroupHeaderBackgroundColor transparent
	DividerBackgroundColor #FFF-#fff
    DividerBorderColor #666
    DividerBorderThickness 2
    DividerFontColor #222
	ReferenceBackgroundColor transparent
	ReferenceBorderColor #666
	ReferenceFontColor #222
	ReferenceHeaderFontColor #9C27B0
	StereotypeFontColor #FFF
}


skinparam partition {
	BorderColor #2196F3
	FontColor #2196F3
	BackgroundColor transparent
}


skinparam collections {
		FontColor #FFF
	BorderColor #2196F3
	BackgroundColor #4dabf5-#2196F3
}


skinparam control {
		FontColor #FFF
	BorderColor #2196F3
	BackgroundColor #4dabf5-#2196F3
	FontColor #222
}


skinparam entity {
		FontColor #FFF
	BorderColor #2196F3
	BackgroundColor #4dabf5-#2196F3
	FontColor #222
}


skinparam boundary {
		FontColor #FFF
	BorderColor #2196F3
	BackgroundColor #4dabf5-#2196F3
	FontColor #222
}


skinparam agent {
	BackgroundColor #orange
	BorderColor #999999
	FontColor #333333
}


skinparam note {
	BorderThickness 1
	BackgroundColor #b052c0-#9C27B0
	BorderColor #9C27B0
	FontColor #FFF
}


skinparam artifact {
	BackgroundColor #FFF-#fff
	BorderColor #666
	FontColor #666
}


skinparam component {
		FontColor #FFF
	BorderColor #2196F3
	BackgroundColor #4dabf5-#2196F3
}


skinparam interface {
	BackgroundColor  #B7161C
	BorderColor  #e51c23
	FontColor #222
}


skinparam storage {
	BackgroundColor #ffad33-#ff9800
  	BorderColor #ff9800
	FontColor #FFF
}


skinparam node {
	BackgroundColor #fff-#fff
	BorderColor #222
	FontColor #222
}


skinparam cloud {
	BackgroundColor transparent
	BorderColor #F2FCFE
	FontColor #222
}


skinparam database {
		FontColor #FFF
	BorderColor #2196F3
	BackgroundColor #4dabf5-#2196F3
	FontColor #222
}


skinparam class {
		FontColor #FFF
	BorderColor #2196F3
	BackgroundColor #4dabf5-#2196F3
	HeaderBackgroundColor #2196F3-#1a78c2
	StereotypeFontColor #222
	BorderThickness 1
	AttributeFontColor #fff
	AttributeFontSize 11
}


skinparam object {
		FontColor #FFF
	BorderColor #2196F3
	BackgroundColor #4dabf5-#2196F3
	StereotypeFontColor #222
	BorderThickness 1
	AttributeFontColor #222
	AttributeFontSize 11
}


skinparam usecase {
		FontColor #FFF
	BorderColor #2196F3
	BackgroundColor #4dabf5-#2196F3
	BorderThickness 2
	StereotypeFontColor #2196F3
}


skinparam rectangle {
	FontColor #2196F3
	BackgroundColor #fff-#fff
	BorderThickness 2
	StereotypeFontColor #2196F3
}


skinparam package {
		FontColor #FFF
	BorderColor #2196F3
	BackgroundColor #4dabf5-#2196F3
	BackgroundColor #fff-#fff
	BorderThickness 2
}


skinparam folder {
	BackgroundColor #FFF-#fff
  	BorderColor #ff9800
	FontColor #ff9800
	BorderThickness 2
}


skinparam frame {
	BackgroundColor #FFF-#fff
  	BorderColor #9C27B0
	FontColor #9C27B0
	BorderThickness 2
}


skinparam state {
		FontColor #FFF
	BorderColor #2196F3
	BackgroundColor #4dabf5-#2196F3
	BorderColor #1a78c2
	StartColor #9C27B0
	EndColor #9C27B0
	AttributeFontColor #222
	AttributeFontSize 11
}


skinparam queue {
		FontColor #FFF
	BorderColor #2196F3
	BackgroundColor #4dabf5-#2196F3
}


skinparam card {
	BackgroundColor #b052c0-#9C27B0
	BorderColor #9C27B0
	FontColor #FFF
}


skinparam file {
	BackgroundColor #fff-#fff
	BorderColor #666
	FontColor #666

}


skinparam stack {
		FontColor #FFF
	BorderColor #2196F3
	BackgroundColor #4dabf5-#2196F3
}

title Basic Code Flow Diagram

start

:Hook is Registed for AppointmentBookingFlowPage;

:AppointmentBookingFlowPage;

note right
Query: AppointmentBookingFlowPageQuery
Skipped when there's no location
end note

if(Any Location available?) then (yes)

:AppointmentBookingFlowMaster;

:useAppointmentBookingFlow;

-> Object returned from useAppointmentBookingFlow is being passed in the following components;

note right
Returns Data from the query stored in variable named value, an empty state and functions: save, loading and reset.
end note

switch()

case ()
  :Header;
  :Allow booking from Booking Portal;
case () 
  :Sequence;
  :Select Booking Sequence;
case ()
  :Steps;
    ->Based on the booking sequence, Service, employee and availability order will be changed;
  split
  :Service -> Employee -> Availability;
  split again
  :Service -> Availability -> Employee;
  split again
  :Availability -> Service -> Employee;

  end split
  :Resource Options;
  :Customer Options;
  :Cart Options;
  :Booking Confirmation;

endswitch

elseif (No active location)
:Show Location Empty State;
end

else (error)
:Error;
end

endif

if(values changed?) then(yes)

split
:Save;

note left
Mutations in this step: UpsertAppointmentBookingFlowSettingMutation and UpsertServiceSettingMutation
end note

end

split again
:Reset;

note right
Values will be reset
end note
end
end split

else (no)
end


@enduml

PlantUML version 1.2022.7(Mon Aug 22 22:31:30 IST 2022)
(GPL source distribution)
Java Runtime: Java(TM) SE Runtime Environment
JVM: Java HotSpot(TM) 64-Bit Server VM
Default Encoding: UTF-8
Language: en
Country: IN
--></g></svg>